<svg width="22" height="23" viewBox="0 0 22 23" fill="none" xmlns="http://www.w3.org/2000/svg">
<path d="M13.7502 13.3333V10.5833H16.5002V8.74999L20.1668 11.9583L16.5002 15.1667V13.3333H13.7502ZM12.8335 7.55832V8.74999H1.8335V7.55832L7.3335 4.16666L12.8335 7.55832ZM6.41683 9.66666H8.25016V14.25H6.41683V9.66666ZM2.75016 9.66666H4.5835V14.25H2.75016V9.66666ZM11.9168 9.66666V11.9583L10.0835 13.6083V9.66666H11.9168ZM8.34183 15.1667L7.79183 15.625L9.35016 17H1.8335V15.1667H8.34183ZM15.5835 14.25V17H12.8335V18.8333L9.16683 15.625L12.8335 12.4167V14.25H15.5835Z" fill="#DE992F"/>
</svg>
