<svg width="22" height="23" viewBox="0 0 22 23" fill="none" xmlns="http://www.w3.org/2000/svg">
<g clip-path="url(#clip0_4564_22118)">
<path fill-rule="evenodd" clip-rule="evenodd" d="M21.517 11.2601C21.517 17.024 16.8447 21.6966 11.0811 21.6966C5.31738 21.6966 0.64502 17.024 0.64502 11.2601C0.64502 5.49611 5.31738 0.823517 11.0811 0.823517C16.8447 0.823517 21.517 5.49611 21.517 11.2601ZM13.5882 7.38249C15.04 7.88105 16.1019 8.6275 15.8935 10.0167C15.7422 11.034 15.1762 11.5261 14.4242 11.6983C15.4559 12.2334 15.8076 13.2489 15.4808 14.4768C14.8605 16.2438 13.3858 16.3926 11.4245 16.0233L10.9482 17.9228L9.79853 17.637L10.2682 15.7629C9.97019 15.6892 9.66556 15.6102 9.35173 15.5261L8.88009 17.4093L7.73169 17.1234L8.20728 15.22L5.89155 14.638L6.46279 13.3264C6.46279 13.3264 7.31046 13.5502 7.29868 13.5339C7.62428 13.6141 7.76903 13.4027 7.82603 13.2624L9.11659 8.10681C9.13096 7.86339 9.04645 7.55675 8.5807 7.4406C8.59836 7.42818 7.74547 7.23373 7.74547 7.23373L8.0514 6.01024L10.3704 6.58251L10.8421 4.70062L11.9912 4.98642L11.5293 6.83112C11.8385 6.90094 12.149 6.97206 12.451 7.04711L12.9096 5.21415L14.0593 5.49997L13.5882 7.38249ZM10.8373 10.5218C11.6205 10.7294 13.3246 11.1812 13.6217 9.99655C13.9247 8.78448 12.2691 8.41843 11.4584 8.2392C11.3666 8.21888 11.2855 8.20096 11.2194 8.18452L10.6469 10.4723C10.7014 10.4857 10.7655 10.5027 10.8373 10.5218ZM9.95 14.2051C10.888 14.4523 12.9395 14.9926 13.2659 13.6872C13.6001 12.3525 11.611 11.908 10.6405 11.691C10.5322 11.6668 10.4363 11.6454 10.358 11.6259L9.72644 14.1473C9.79057 14.1632 9.86595 14.183 9.95 14.2051Z" fill="#F7931A"/>
</g>
<defs>
<clipPath id="clip0_4564_22118">
<rect width="22" height="22" fill="white" transform="translate(0 0.5)"/>
</clipPath>
</defs>
</svg>
