<svg width="60" height="60" viewBox="0 0 60 60" fill="none" xmlns="http://www.w3.org/2000/svg">
<path d="M38.05 16.377H14.45C13.75 16.377 13.1 16.402 12.5 16.427C6.575 16.777 5 18.952 5 25.702V27.152C5 28.527 6.125 29.652 7.5 29.652H45C46.375 29.652 47.5 28.527 47.5 27.152V25.702C47.5 18.252 45.6 16.377 38.05 16.377Z" fill="#132E58"/>
<path d="M7.5 33.3984C6.125 33.3984 5 34.5234 5 35.8984V43.1734C5 50.6234 6.9 52.4984 14.45 52.4984H38.05C45.475 52.4984 47.425 50.6984 47.5 43.5734V35.8984C47.5 34.5234 46.375 33.3984 45 33.3984H7.5ZM17.4 46.3984H13.125C12.1 46.3984 11.25 45.5484 11.25 44.5234C11.25 43.4984 12.1 42.6484 13.125 42.6484H17.425C18.45 42.6484 19.3 43.4984 19.3 44.5234C19.3 45.5484 18.45 46.3984 17.4 46.3984ZM31.375 46.3984H22.775C21.75 46.3984 20.9 45.5484 20.9 44.5234C20.9 43.4984 21.75 42.6484 22.775 42.6484H31.375C32.4 42.6484 33.25 43.4984 33.25 44.5234C33.25 45.5484 32.425 46.3984 31.375 46.3984Z" fill="#132E58"/>
<path d="M55.004 33.329V20.2289C55.004 12.4039 50.529 9.00391 43.779 9.00391H21.4539C19.5539 9.00391 17.8539 9.27891 16.3539 9.85391C15.1789 10.2789 14.1289 10.9039 13.2789 11.7289C12.8289 12.1539 13.1789 12.8539 13.8289 12.8539H41.004C46.629 12.8539 51.179 17.4039 51.179 23.0289V40.954C51.179 41.579 51.854 41.929 52.304 41.479C54.029 39.654 55.004 36.979 55.004 33.329Z" fill="#132E58"/>
</svg>
