<svg width="49" height="50" viewBox="0 0 49 50" fill="none" xmlns="http://www.w3.org/2000/svg">
<g clip-path="url(#clip0_209_29)">
<path d="M3.5398 17.2638C4.7452 12.5985 7.38434 8.48689 10.977 5.45123C14.7726 2.24372 19.6363 0.227434 25.0008 0.0175063C31.3689 -0.230502 37.2391 2.11776 41.5805 6.11714C45.9209 10.1146 48.7315 15.7611 48.9814 22.1058C49.0755 24.4873 48.805 26.7916 48.2229 28.9642C47.7504 30.7193 47.0694 32.412 46.1943 34.0063C45.7988 33.3934 45.2857 32.8644 44.6845 32.4495C44.0833 32.0346 43.4057 31.7421 42.6908 31.5887C43.2935 30.419 43.7786 29.1741 44.1285 27.8745C44.6077 26.0857 44.8301 24.2022 44.7547 22.2699C44.5508 17.0822 42.2557 12.4677 38.713 9.20552C35.1703 5.94236 30.3732 4.02567 25.1664 4.22876C20.7888 4.40061 16.8159 6.04781 13.7132 8.67143C10.8771 11.0685 8.7681 14.2809 7.74204 17.9229L9.60404 18.2168C10.2077 18.3096 10.6223 18.8739 10.5282 19.4744C10.488 19.7381 10.3557 19.9646 10.1705 20.1286L5.20776 24.5322C4.7501 24.9374 4.04842 24.8974 3.64172 24.4414C3.57312 24.3653 3.51824 24.2832 3.47512 24.1963L0.151938 18.5546C-0.156762 18.0293 0.020618 17.3537 0.546878 17.0451C0.779138 16.9094 1.0408 16.8684 1.28776 16.9094L3.5398 17.2638ZM10.7546 45.3571V31.9842C17.3774 31.9842 18.5015 31.6864 24.4706 35.429H29.1609C31.2836 35.5549 32.3959 37.7001 30.332 39.1091C28.6886 40.311 26.5179 40.2427 24.2933 40.0435C22.7586 39.9673 22.6939 42.0217 24.2933 42.0285C24.8499 42.0715 25.4526 41.9416 25.9789 41.9416C28.7532 41.9377 31.0406 41.4085 32.44 39.2243L33.1417 37.5917L40.1183 34.1469C43.6081 33.0026 46.0914 36.6387 43.5179 39.1706C38.4641 42.8331 33.2828 45.8463 27.983 48.2805C24.1335 50.6131 20.2831 50.533 16.4366 48.2805L10.7546 45.3571ZM0.415558 30.6983H8.93666V46.7006H0.415558V30.6983ZM25.2037 32.9635C23.7454 31.6483 23.5818 29.4074 24.8568 27.894C26.1621 26.3435 28.4808 26.1423 30.037 27.4429C31.5923 28.7435 31.7952 31.0546 30.4898 32.6042C30.3428 32.7779 30.1805 32.938 30.0047 33.0826C28.4543 32.7751 26.7325 32.9606 25.2037 32.9635ZM15.3821 29.55L19.3335 11.0324L35.1105 14.567L34.6646 16.6555L23.3926 14.1305L23.2456 14.0934C22.152 13.8601 21.074 14.5562 20.8407 15.6479L20.6251 16.6565L20.5918 16.6497L19.6 21.4575L17.8282 29.7648C17.0667 29.6418 16.2749 29.5803 15.3821 29.55ZM19.3737 30.1144L22.4871 15.5239L38.2632 19.0585L35.1017 33.8794L33.0515 34.8919C32.8751 34.6576 32.6732 34.4389 32.4488 34.2387L34.646 23.5734C33.3592 23.2863 32.5478 22.0072 32.8369 20.7311L26.5972 19.3387C26.3091 20.6207 25.0263 21.4282 23.7454 21.1412L21.707 31.0293C20.8691 30.627 20.1136 30.3321 19.3737 30.1144Z" fill="#132E58"/>
</g>
<defs>
<clipPath id="clip0_209_29">
<rect width="49" height="50" fill="white"/>
</clipPath>
</defs>
</svg>
