<svg width="53" height="50" viewBox="0 0 53 50" fill="none" xmlns="http://www.w3.org/2000/svg">
<g clip-path="url(#clip0_209_31)">
<path fill-rule="evenodd" clip-rule="evenodd" d="M17.0542 30.6763L20.8411 41.86L22.7476 35.2225L21.8116 34.1964C21.3889 33.5816 21.2983 33.0403 21.5312 32.5771C22.0359 31.5725 23.084 31.7587 24.0631 31.7587C25.0896 31.7587 26.3534 31.5639 26.6725 32.8498C26.7804 33.2785 26.6466 33.7331 26.3447 34.1964L25.4088 35.2225L27.3152 41.86L30.7441 30.6763C31.4817 31.3387 32.6419 31.8453 33.9876 32.2696C34.1903 32.0272 34.406 31.789 34.6303 31.5639C36.5755 29.6112 39.2669 28.3988 42.2387 28.3988C45.2105 28.3988 47.8975 29.6068 49.8471 31.5639C51.7923 33.5166 53 36.2184 53 39.2016C53 42.1848 51.7966 44.8822 49.8471 46.8393C47.9019 48.792 45.2105 50.0043 42.2387 50.0043C39.9872 50.0043 37.8953 49.3072 36.1658 48.1209H2.61808C0.974772 47.9953 0.138021 47.1423 0 45.6659C0.418376 42.8213 0.534831 39.102 2.26009 36.8116C2.8855 35.9802 3.66618 35.3654 4.52881 34.8848C7.25472 33.3564 14.5785 32.9104 17.0542 30.6763ZM36.7092 40.1238L38.6674 38.0629L41.4925 40.7906L45.8919 34.9065L48.0787 36.6773C47.0479 37.9589 43.373 43.0204 42.5708 43.6785C41.9109 44.2198 40.962 44.2198 40.3495 43.6266L36.7092 40.1238ZM48.717 32.6983C47.0608 31.0357 44.7705 30.0052 42.2387 30.0052C39.7069 30.0052 37.4166 31.0357 35.7603 32.6983C34.1041 34.3609 33.0776 36.66 33.0776 39.2016C33.0776 41.7431 34.1041 44.0422 35.7603 45.7049C37.4166 47.3675 39.7069 48.398 42.2387 48.398C44.7705 48.398 47.0608 47.3675 48.717 45.7049C50.3733 44.0422 51.3998 41.7431 51.3998 39.2016C51.4041 36.66 50.3776 34.3609 48.717 32.6983ZM15.234 14.6822C15.5273 14.7644 15.8293 14.7731 16.1441 14.7082L15.605 10.4174C15.881 9.35658 16.3037 8.5296 16.8644 7.92343C17.451 7.29129 18.1842 6.89728 19.0598 6.72842C20.2201 6.64615 20.5694 7.49479 21.7297 8.2395C25.2578 10.504 28.2425 11.266 32.6031 11.3223L32.064 14.0587C31.9906 14.1713 31.9518 14.3098 31.9648 14.4527C31.9648 14.4743 31.9691 14.5003 31.9734 14.522L31.8958 14.9117C32.0165 14.9203 32.133 14.9246 32.2494 14.9203C32.3573 14.9853 32.4867 15.0199 32.6247 15.0069C33.3838 14.9376 33.8453 15.0069 33.9704 15.2624C34.1429 15.6087 33.9963 16.3145 33.5002 17.4489L31.1151 21.3933C30.2266 22.8611 29.3294 24.3289 28.1864 25.3983C27.0909 26.4288 25.7409 27.1129 23.8992 27.1086C22.1955 27.1042 20.9102 26.4461 19.8448 25.4719C18.7406 24.4588 17.8478 23.0776 17.0024 21.7224L14.8847 18.3408L14.8761 18.3278C14.2248 17.3536 13.8883 16.5137 13.8711 15.8685C13.8668 15.652 13.897 15.4615 13.9703 15.3057C14.035 15.1671 14.1342 15.0502 14.2722 14.955C14.5008 14.8034 14.82 14.7125 15.234 14.6822ZM34.0653 13.8985L34.199 8.39104C34.0394 6.15256 33.3018 4.45963 32.1244 3.18235C29.2389 0.0476087 23.8474 -0.757726 19.7801 0.718721C19.0943 0.965517 18.4473 1.28159 17.8564 1.65828C16.1786 2.73206 14.82 4.2951 14.2808 6.23483C14.1514 6.69378 14.0652 7.15273 14.0177 7.61169C13.9315 9.54276 13.9789 11.8462 14.1169 13.6777C13.9272 13.7513 13.7546 13.8379 13.5994 13.9418C13.2716 14.1626 13.0257 14.4527 12.8661 14.7948C12.7152 15.1238 12.6462 15.4962 12.6591 15.9075C12.685 16.7778 13.0861 17.8429 13.8625 19.0033L15.9802 22.3805C16.873 23.8006 17.809 25.2554 19.0339 26.3812C20.302 27.5459 21.8504 28.3339 23.9078 28.3426C26.1118 28.3469 27.7206 27.5286 29.0275 26.3032C30.2869 25.1169 31.2358 23.5755 32.1632 22.0384L34.5742 18.0507C34.5872 18.0291 34.6001 18.0031 34.6087 17.9814C35.2686 16.479 35.411 15.4312 35.0659 14.7385C34.8675 14.3098 34.5311 14.0414 34.0653 13.8985Z" fill="#132E58"/>
</g>
<defs>
<clipPath id="clip0_209_31">
<rect width="53" height="50" fill="white"/>
</clipPath>
</defs>
</svg>
