<svg width="39" height="50" viewBox="0 0 39 50" fill="none" xmlns="http://www.w3.org/2000/svg">
<g clip-path="url(#clip0_209_41)">
<path fill-rule="evenodd" clip-rule="evenodd" d="M1.89493 46.0083L6.67219 45.166L9.02996 49.3367C10.7376 51.4323 11.8239 47.9899 12.3218 46.7895L16.8686 38.2487C15.8111 37.8866 14.5397 36.8367 13.227 35.6649C10.6142 35.7178 8.18232 35.258 6.38827 33.0119L1.11724 43.0705L0.656382 44.0389C0.298396 45.2921 0.487676 46.1222 1.89082 46.0083H1.89493ZM19.7449 10.9863L21.3044 14.5996L25.2628 14.9495C25.3457 14.9578 25.4222 14.9977 25.476 15.0607C25.5297 15.1237 25.5566 15.205 25.5508 15.2873C25.5429 15.3685 25.5047 15.4438 25.4438 15.4989L22.4524 18.0827L23.3371 21.9116C23.35 21.9727 23.3446 22.0361 23.3213 22.0941C23.298 22.1521 23.2579 22.202 23.2061 22.2376C23.1543 22.2732 23.0931 22.2929 23.03 22.2943C22.9669 22.2957 22.9048 22.2786 22.8515 22.2453L19.4527 20.223L16.0415 22.2371C15.9699 22.2792 15.8844 22.2917 15.8036 22.2719C15.7227 22.2521 15.653 22.2016 15.6095 22.1313C15.5877 22.0972 15.5732 22.059 15.5668 22.0191C15.5605 21.9793 15.5624 21.9385 15.5725 21.8994L16.4571 18.0705L13.4657 15.4866C13.4052 15.4327 13.368 15.3578 13.3619 15.2775C13.3558 15.1972 13.3811 15.1176 13.4328 15.0553C13.4899 14.9926 13.5697 14.9546 13.655 14.9495L17.601 14.5996L19.1606 10.9863C19.1932 10.9107 19.2547 10.8507 19.3317 10.8195C19.4087 10.7883 19.495 10.7883 19.572 10.8195C19.6103 10.8342 19.6451 10.8567 19.6741 10.8854C19.7032 10.9141 19.7258 10.9485 19.7407 10.9863H19.7449ZM19.5021 -6.37886e-06C20.3298 -0.0156109 21.1401 0.235782 21.8105 0.716139C22.7198 1.2858 23.728 2.40478 24.983 3.11279C26.7441 4.10969 30.0112 2.73437 31.6859 5.19205C32.6611 6.62434 32.7064 7.74739 32.7805 8.85416C32.833 10.2941 33.3719 11.6751 34.3112 12.7767C36.3686 15.4582 36.78 17.2526 35.7308 19.1081C35.0107 20.3735 33.4923 21.0815 33.1426 21.8831C32.3937 23.5921 33.2208 24.882 32.1962 26.8758C31.8734 27.5329 31.417 28.117 30.8556 28.5917C30.2941 29.0664 29.6397 29.4214 28.9332 29.6346C27.6987 30.0415 26.4643 29.4596 25.4809 29.8706C23.7485 30.5949 22.4688 32.2672 21.0739 32.6904C20.0382 33.0093 18.9289 33.0093 17.8932 32.6904C16.5147 32.2835 15.2351 30.5949 13.5068 29.8747C12.5193 29.4678 11.2849 30.0334 10.0545 29.6387C9.34671 29.4271 8.69092 29.0727 8.12859 28.5979C7.56625 28.123 7.10958 27.5381 6.78741 26.8799C5.77928 24.8861 6.60636 23.6003 5.84924 21.8872C5.49536 21.0734 3.97701 20.3776 3.25692 19.1121C2.19942 17.2485 2.62736 15.45 4.68064 12.7808C5.91507 11.1532 6.13316 10.0545 6.21134 8.85823C6.28129 7.74739 6.32655 6.62434 7.30175 5.19612C8.97647 2.75471 12.2395 4.11376 14.0088 3.11686C15.2433 2.40885 16.2761 1.28987 17.1813 0.724277C17.8538 0.237941 18.6691 -0.0165278 19.5021 -6.37886e-06ZM19.4527 6.88883C21.4179 6.88883 23.339 7.46505 24.9731 8.54464C26.6072 9.62422 27.8808 11.1587 28.6331 12.954C29.3853 14.7494 29.5824 16.725 29.1993 18.6311C28.8162 20.5372 27.8701 22.2881 26.4808 23.6625C25.0915 25.037 23.3212 25.9732 21.3939 26.3528C19.4665 26.7325 17.4686 26.5384 15.6528 25.7953C13.8369 25.0522 12.2846 23.7933 11.1922 22.1778C10.0998 20.5624 9.51632 18.6629 9.5155 16.7196C9.5155 14.1134 10.5625 11.6139 12.426 9.77106C14.2896 7.9282 16.8172 6.8929 19.4527 6.8929V6.88883ZM37.1216 46.0083L32.3525 45.166L29.9948 49.3367C28.283 51.4323 27.1967 47.9899 26.7029 46.7895L22.1314 38.2487C23.1889 37.8866 24.4645 36.8367 25.773 35.6649C28.3859 35.7178 30.8218 35.258 32.6118 33.0119L37.8869 43.0867L38.356 44.0389C38.714 45.2921 38.5247 46.1222 37.1216 46.0083Z" fill="#132E58"/>
</g>
<defs>
<clipPath id="clip0_209_41">
<rect width="38" height="50" fill="white" transform="translate(0.5)"/>
</clipPath>
</defs>
</svg>
