<svg width="51" height="50" viewBox="0 0 51 50" fill="none" xmlns="http://www.w3.org/2000/svg">
<g clip-path="url(#clip0_209_34)">
<path fill-rule="evenodd" clip-rule="evenodd" d="M36.207 20.731L43.7833 7.60324L30.3898 0L17.1896 22.8725C18.1379 22.4878 19.1369 22.2327 20.1569 22.1281L29.825 5.37508C31.0761 6.08757 32.4687 5.70093 33.0892 4.60878L38.3616 7.65406C37.7609 8.71134 38.1474 10.1054 39.2351 10.7223L34.0873 19.6419C34.8254 19.9398 35.5297 20.3135 36.207 20.731ZM6.54732 37.9723C7.15593 37.9723 7.65 38.4666 7.65 39.0755C7.65 39.6853 7.15593 40.1786 6.54732 40.1786C5.93871 40.1786 5.44464 39.6853 5.44464 39.0755C5.44464 38.4666 5.93871 37.9723 6.54732 37.9723ZM38.6415 28.3472C38.6405 28.138 38.6534 27.9397 38.6793 27.7523L36.5108 26.3034C36.199 26.0951 35.8574 25.856 35.5147 25.6158C34.2816 24.7519 33.0115 23.862 31.6429 23.5023C30.9038 23.308 30.0511 23.1784 29.1776 23.1615C28.4166 23.1475 27.6396 23.2193 26.9095 23.4076C26.4732 23.5212 26.0518 23.6777 25.6614 23.8839C25.3137 24.0673 24.99 24.2925 24.7021 24.5615L23.2458 26.2944C23.202 26.3801 23.1393 26.4539 23.0635 26.5107L19.0483 31.2909C19.1081 31.5968 19.2286 31.8529 19.3929 32.0572C19.5842 32.2943 19.8392 32.4707 20.133 32.5803C20.4438 32.6969 20.8024 32.7417 21.1819 32.7109C21.7876 32.66 22.433 32.4129 23.0157 31.9515L24.1314 31.0288C24.4133 30.7956 24.6483 30.5814 24.8814 30.3671C25.3964 29.8968 25.9114 29.4264 26.4513 29.1046C27.7024 28.3572 28.9475 28.3333 30.1796 30.4L36.4929 41.7919H38.6395L38.6415 28.3472ZM39.1495 26.5236C39.2471 26.3881 39.3587 26.2635 39.4842 26.1509C40.035 25.6547 40.8239 25.4125 41.8359 25.4115V25.4086L47.3244 25.4106C48.4729 25.4056 49.4072 25.6158 50.0537 26.1141C50.7739 26.6681 51.1116 27.5132 50.9671 28.7239L49.7539 41.2677C49.6652 42.3878 49.3694 43.2657 48.8425 43.8726C48.2817 44.5173 47.5007 44.8352 46.4777 44.7923L41.5421 44.7933C40.8508 44.8292 40.2651 44.6419 39.775 44.2492C39.4154 43.9632 39.1186 43.5706 38.8805 43.0813H37.1732C37.4033 43.754 37.3914 44.3917 37.2081 44.9587C37.0188 45.5417 36.6513 46.0389 36.1821 46.4106C35.7229 46.7753 35.1621 47.0245 34.5764 47.1211C34.0036 47.2148 33.405 47.163 32.8482 46.9318C32.2007 47.6094 31.5184 48.0359 30.8072 48.2322C30.093 48.4285 29.3698 48.3887 28.6377 48.1316C27.9434 48.9019 27.1754 49.3852 26.3297 49.5685C25.4681 49.7549 24.5517 49.6263 23.5815 49.1689C23.2787 49.4051 22.9619 49.5924 22.6322 49.729C22.1631 49.9233 21.671 50.013 21.158 49.998C19.9278 49.9611 19.0991 49.5974 18.4397 49.0075C17.8111 48.4455 17.3878 47.723 16.9107 46.8919L14.1903 42.1446H12.0806C11.9621 42.7396 11.7579 43.2448 11.4551 43.6503L11.4252 43.6922C10.8873 44.3838 10.0974 44.7515 9.00568 44.7295L4.40273 44.7305C3.49031 44.878 2.70837 44.6548 2.09677 43.9453C1.5549 43.3165 1.18435 42.3001 1.02697 40.8034L1.02 40.7486L0.0687259 28.9611C-0.119536 27.6885 0.0886478 26.7887 0.599644 26.1739C1.11562 25.554 1.89257 25.274 2.85082 25.2292L2.9305 25.2242H8.75765V25.2272C9.67904 25.2162 10.4699 25.3687 11.0676 25.7553V25.7573C11.5507 26.0702 11.8973 26.5107 12.0756 27.1096H16.0411C17.0372 26.4369 17.9705 25.9088 19.0025 25.5869C20.0155 25.271 21.1022 25.1604 22.4002 25.3159L23.7568 23.7006L23.8076 23.6468C24.1861 23.287 24.6095 22.9911 25.0647 22.7509C25.5428 22.4988 26.0568 22.3075 26.5887 22.17C27.4354 21.9507 28.3279 21.867 29.1975 21.883C30.1826 21.9009 31.1399 22.0464 31.9666 22.2636L31.9686 22.2646C33.5514 22.6792 34.9191 23.6378 36.2469 24.5685C36.5636 24.7907 36.8794 25.012 37.222 25.2402L39.1495 26.5236ZM10.9222 27.9327C10.9001 27.8574 10.892 27.7787 10.8983 27.7005C10.8275 27.286 10.6462 27.0059 10.3773 26.8316C10.0018 26.5914 9.44496 26.4977 8.76462 26.5057H8.75765V26.5087L2.9056 26.5077C2.30296 26.5366 1.84078 26.6811 1.58279 26.992C1.30488 27.3248 1.20527 27.8998 1.34074 28.7907L1.34671 28.8494L2.29898 40.6688C2.42847 41.8905 2.69144 42.6758 3.06398 43.1083C3.35882 43.4491 3.76125 43.5467 4.24435 43.459C4.2832 43.452 4.32205 43.4481 4.3599 43.4481L8.96882 43.4461L9.03755 43.4501C9.68302 43.461 10.1303 43.2677 10.4122 42.905L10.4351 42.8771C10.7469 42.4536 10.9002 41.7999 10.9242 40.9628L10.9222 27.9327ZM12.2061 40.8612H14.5609C14.8099 40.8612 15.0261 41.0027 15.1327 41.2099L18.0243 46.2552C18.4477 46.9936 18.8212 47.6333 19.2923 48.0548C19.7326 48.4485 20.3094 48.6926 21.1939 48.7185C21.5256 48.7285 21.8433 48.6707 22.1461 48.5461C22.3314 48.4694 22.5137 48.3657 22.692 48.2362L20.8084 44.7096C20.7688 44.6356 20.7442 44.5544 20.736 44.4709C20.7278 44.3873 20.7362 44.3029 20.7606 44.2226C20.785 44.1423 20.825 44.0675 20.8784 44.0027C20.9317 43.9378 20.9973 43.8841 21.0714 43.8447C21.3831 43.6782 21.7706 43.7958 21.936 44.1077L23.9839 47.9412C24.7469 48.3289 25.4372 48.4495 26.0588 48.3149C26.6266 48.1914 27.1625 47.8506 27.6665 47.2995L24.7151 42.6658C24.6242 42.5227 24.5938 42.3493 24.6306 42.1837C24.6674 42.0182 24.7683 41.874 24.9113 41.7829C24.9821 41.7379 25.061 41.7072 25.1436 41.6927C25.2262 41.6782 25.3109 41.6801 25.3927 41.6983C25.4746 41.7166 25.5521 41.7508 25.6207 41.799C25.6894 41.8472 25.7479 41.9084 25.7928 41.9792L28.9036 46.863C29.4485 47.0843 29.9725 47.1351 30.4715 46.9986C30.9476 46.867 31.4248 46.5611 31.9019 46.0678L29.0839 40.7615C29.004 40.6113 28.9871 40.4354 29.0367 40.2727C29.0864 40.1099 29.1987 39.9735 29.3489 39.8936C29.4993 39.814 29.675 39.7974 29.8377 39.8472C30.0003 39.8971 30.1365 40.0095 30.2165 40.1596L33.1311 45.6493C33.5106 45.8685 33.9489 45.9263 34.3712 45.8566C34.7398 45.7968 35.0944 45.6383 35.3852 45.4082C35.6651 45.1849 35.8833 44.897 35.9899 44.5671C36.1064 44.2054 36.0944 43.7799 35.8932 43.3175C35.8514 43.2219 35.8345 43.1202 35.8414 43.0216C35.7526 42.9832 35.6736 42.9251 35.6105 42.8518C35.5473 42.7784 35.5016 42.6916 35.4769 42.5981L29.08 31.0537C28.3687 29.8639 27.7273 29.833 27.1077 30.2017C26.6684 30.4638 26.2062 30.8873 25.743 31.3098C25.4631 31.5659 25.1812 31.824 24.9482 32.0163L23.8126 32.952C23.0217 33.5808 22.1312 33.9186 21.2865 33.9894C20.7257 34.0352 20.1779 33.9634 19.6868 33.7791C19.1788 33.5888 18.7335 33.2789 18.3959 32.8593C18.0313 32.4069 17.7932 31.8339 17.7364 31.1523C17.7205 30.956 17.7942 30.7747 17.9227 30.6451L21.3802 26.5296C20.645 26.5196 19.9946 26.6203 19.384 26.8106C18.4526 27.0996 17.584 27.6068 16.6328 28.2555C16.5195 28.3447 16.3795 28.3931 16.2353 28.3931H12.2061V40.8612ZM44.2784 37.9723C44.887 37.9723 45.381 38.4666 45.381 39.0755C45.381 39.6853 44.887 40.1786 44.2784 40.1786C43.6687 40.1786 43.1747 39.6853 43.1747 39.0755C43.1747 38.4666 43.6687 37.9723 44.2784 37.9723ZM29.7503 13.1298C27.8129 13.054 26.1813 14.5627 26.1056 16.5009C26.0698 17.3998 26.3756 18.2318 26.9055 18.8736C28.6088 18.6005 30.4755 18.6902 32.1589 19.0559C32.7468 18.4387 33.089 17.6279 33.1211 16.7759C33.1968 14.8378 31.6877 13.2055 29.7503 13.1298ZM14.537 23.9338L26.1743 3.76973L24.2808 2.69551L12.5817 22.9672C13.0209 23.2262 13.4542 23.57 13.8039 23.9338H14.537Z" fill="#132E58"/>
</g>
<defs>
<clipPath id="clip0_209_34">
<rect width="51" height="50" fill="white"/>
</clipPath>
</defs>
</svg>
