<svg width="55" height="55" viewBox="0 0 55 55" fill="none" xmlns="http://www.w3.org/2000/svg">
<path d="M19.0428 34.4858C18.8085 34.4858 18.5685 34.4916 18.3286 34.4916C13.3457 34.4916 8.64284 33.9087 5.08284 32.8516C3.24855 32.3087 1.77998 31.6573 0.717123 30.9087C0.562837 30.8002 0.41998 30.6916 0.282837 30.583V38.8344C0.282837 41.7887 8.36284 44.183 18.3286 44.183C18.8371 44.183 19.3399 44.1773 19.8371 44.1659C19.1113 42.143 18.7456 40.0172 18.7456 37.8402C18.7457 36.703 18.8428 35.583 19.0428 34.4858Z" fill="#132E58"/>
<path d="M24.2542 24.5372C24.9914 23.8001 25.7799 23.1315 26.6143 22.5372C24.0656 22.9144 21.2428 23.1144 18.3286 23.1144C13.3457 23.1144 8.64284 22.5315 5.08284 21.4744C3.24855 20.9315 1.77998 20.2801 0.717123 19.5315C0.562837 19.423 0.41998 19.3144 0.282837 19.2058V27.423C0.282837 27.663 0.33998 27.8972 0.442837 28.1315C1.61427 30.7543 9.17427 32.7715 18.3286 32.7715C18.7 32.7715 19.0714 32.7658 19.4371 32.76C19.6485 32 19.9114 31.2458 20.2256 30.5143C20.5743 29.6858 20.9799 28.8915 21.4428 28.1315C22.2199 26.8344 23.1628 25.6287 24.2542 24.5372Z" fill="#132E58"/>
<path d="M18.3286 12.4115C13.3457 12.4115 8.64284 11.8286 5.08284 10.7715C3.24855 10.2286 1.77998 9.57722 0.717123 8.82864C0.562837 8.72007 0.41998 8.6115 0.282837 8.50293V15.0115V15.8686V16.0515C0.282837 16.2801 0.334265 16.5086 0.425694 16.7258C1.54569 19.3601 9.13427 21.4001 18.3286 21.4001C27.5228 21.4001 35.1114 19.3601 36.2314 16.7258C36.3228 16.5029 36.3742 16.2801 36.3742 16.0515V15.8686V15.0115V8.50293C36.2371 8.61722 36.0942 8.72579 35.9399 8.82864C34.8771 9.5715 33.4084 10.2229 31.5742 10.7715C28.0143 11.8286 23.3114 12.4115 18.3286 12.4115Z" fill="#132E58"/>
<path d="M36.3743 5.34857C36.3743 5.05714 36.2943 4.77143 36.14 4.49143C35.9799 4.19429 35.74 3.90857 35.4257 3.63429C33.0143 1.52 26.2714 0 18.3285 0C10.3857 0 3.63706 1.52 1.23141 3.63429C0.917122 3.90857 0.677123 4.19429 0.517123 4.49143C0.362837 4.77143 0.282837 5.05714 0.282837 5.34857C0.282837 8.30286 8.36284 10.6971 18.3285 10.6971C28.2942 10.6971 36.3743 8.30286 36.3743 5.34857Z" fill="#132E58"/>
<path d="M38.0885 20.6799C37.9114 20.6742 37.7343 20.6685 37.5514 20.6685C37.4429 20.6685 37.3343 20.6685 37.2314 20.6742C36.9457 20.6799 36.66 20.6913 36.3743 20.7085C30.9857 21.0742 26.2771 23.9256 23.3914 28.1313C22.4371 29.5199 21.6771 31.0627 21.1628 32.7085C21.0714 32.9942 20.9914 33.2856 20.9171 33.577C20.8428 33.8627 20.78 34.1542 20.7228 34.4399C20.5 35.537 20.3857 36.6742 20.3857 37.8342C20.3857 40.0455 20.8029 42.1542 21.5629 44.0913C24.0657 50.4742 30.2828 54.9999 37.5513 54.9999C47.0313 54.9999 54.7171 47.3142 54.7171 37.8342C54.7228 28.537 47.3228 20.9656 38.0885 20.6799ZM42.5799 46.1027C41.7171 47.0113 40.54 47.6113 39.1914 47.8514V48.5371C39.1914 49.1657 38.6828 49.6742 38.0543 49.6742H37.4371C36.8085 49.6742 36.3 49.1657 36.3 48.5371V47.8228C35.5572 47.6799 34.8429 47.4399 34.2028 47.1142C33.4486 46.7257 32.7915 46.0914 32.2429 45.2343C31.8772 44.6629 31.6143 43.9999 31.4543 43.2571C31.3914 42.9771 31.4429 42.6971 31.5743 42.4685C31.7343 42.1828 32.02 41.9714 32.3685 41.9085L32.9799 41.7999C33.1057 41.7771 33.2313 41.7771 33.3456 41.7999C33.7857 41.8685 34.1571 42.1885 34.2714 42.6399C34.4428 43.3199 34.6771 43.8457 34.9685 44.2171C35.6199 45.0514 36.6941 45.5486 37.8428 45.5486C38.037 45.5486 38.2313 45.5314 38.4256 45.5028C39.2485 45.3771 39.9857 44.9885 40.4941 44.4057C41.037 43.7885 41.3113 43.0114 41.3113 42.0971C41.3113 41.3257 41.1227 40.6971 40.7456 40.2343C40.0542 39.3885 38.8714 39.0229 37.8028 38.7829C37.3057 38.6686 36.8313 38.56 36.3628 38.4286C35.5857 38.2057 34.8371 37.9314 34.0885 37.5143C33.3171 37.0857 32.7171 36.48 32.3 35.72C31.8885 34.9658 31.6771 34.0972 31.6771 33.1372C31.6771 33.0229 31.6828 32.9143 31.6828 32.8057C31.7 32.4801 31.74 32.1714 31.7971 31.8743C31.8715 31.52 31.9743 31.1829 32.1114 30.8629C32.4143 30.1543 32.8771 29.5258 33.4885 28.9886C33.8885 28.64 34.3685 28.3486 34.9114 28.1257C35.3343 27.9485 35.7971 27.8171 36.2828 27.7257V26.7999C36.2828 26.6627 36.3114 26.5256 36.3572 26.4056C36.4942 26.0342 36.82 25.7599 37.2143 25.6856C37.2828 25.6742 37.3513 25.6685 37.42 25.6685H38.0371C38.0486 25.6685 38.06 25.6685 38.0715 25.6685C38.6829 25.6856 39.1743 26.1885 39.1743 26.7999V27.7427C40.1972 27.9427 41.1058 28.3427 41.7915 28.9085C42.5172 29.5085 43.0429 30.2685 43.3687 31.1827C43.6086 31.8513 43.1687 32.577 42.4657 32.6799L41.8657 32.7713C41.3229 32.8513 40.7972 32.5313 40.6258 32.017C40.4829 31.5942 40.2887 31.2456 40.0487 30.977C39.5058 30.3713 38.6544 30.0228 37.7115 30.0228C37.4258 30.0228 37.1458 30.0571 36.8772 30.1142C36.7001 30.1542 36.5287 30.2057 36.3629 30.2685C35.8943 30.4514 35.4829 30.7199 35.1687 31.0685C35.0201 31.2342 34.9 31.4056 34.7972 31.5885C34.5687 31.9999 34.4544 32.4571 34.4544 32.9657C34.4544 33.6857 34.6544 34.2971 35.0544 34.7829C35.4086 35.2057 35.8544 35.5029 36.3572 35.7199C37.0429 36.0171 37.8201 36.1771 38.5857 36.3314C39.3572 36.4857 40.1572 36.6457 40.8544 36.9542C41.5915 37.2799 42.2086 37.6857 42.6772 38.1542C43.1515 38.6285 43.5172 39.1942 43.7743 39.8457C44.0257 40.4914 44.1572 41.1999 44.1572 41.9485C44.1629 43.5999 43.6314 44.9942 42.5799 46.1027Z" fill="#132E58"/>
</svg>
