<svg width="42" height="42" viewBox="0 0 42 42" fill="none" xmlns="http://www.w3.org/2000/svg">
<path d="M21.2188 0.46875C10 0.46875 0.90625 9.5625 0.90625 20.7812C0.90625 32 10 41.0938 21.2188 41.0938C32.4375 41.0938 41.5312 32 41.5312 20.7812C41.5312 9.5625 32.4375 0.46875 21.2188 0.46875ZM21.2188 32.3047C19.9234 32.3047 18.875 31.2547 18.875 29.9609C18.875 28.6672 19.9234 27.6172 21.2188 27.6172C22.5125 27.6172 23.5625 28.6672 23.5625 29.9609C23.5625 31.2547 22.5125 32.3047 21.2188 32.3047ZM23.5625 22.1484C23.5625 23.4422 22.5125 24.4922 21.2188 24.4922C19.9234 24.4922 18.875 23.4422 18.875 22.1484V11.2109C18.875 9.91562 19.9234 8.86719 21.2188 8.86719C22.5125 8.86719 23.5625 9.91562 23.5625 11.2109V22.1484Z" fill="#132E58"/>
</svg>
