<svg width="50" height="50" viewBox="0 0 50 50" fill="none" xmlns="http://www.w3.org/2000/svg">
<g clip-path="url(#clip0_209_43)">
<path fill-rule="evenodd" clip-rule="evenodd" d="M46.9569 33.842C47.7993 33.842 48.557 34.1838 49.1092 34.7412C49.6614 35.2987 50 36.0677 50 36.9141C50 37.7645 49.6614 38.5295 49.1092 39.0869C48.557 39.6444 47.7952 39.9862 46.9569 39.9862C46.1145 39.9862 45.3567 39.6444 44.8045 39.0869C44.5183 38.798 44.2846 38.4522 44.1314 38.0615H36.5619C35.9653 38.0615 35.4817 37.5732 35.4817 36.971V30.0537H29.7662V44.0552C30.1733 44.2098 30.5361 44.4539 30.8343 44.7551C31.3865 45.3125 31.7251 46.0816 31.7251 46.9279C31.7251 47.7783 31.3865 48.5433 30.8343 49.1008C30.2821 49.6582 29.5204 50 28.682 50C27.8396 50 27.0818 49.6582 26.5296 49.1008C25.9774 48.5433 25.6389 47.7743 25.6389 46.9279C25.6389 46.0775 25.9774 45.3125 26.5296 44.7551C26.8319 44.4499 27.1947 44.2098 27.5977 44.0552V30.0578H21.1447V46.7529C21.1447 47.3552 20.661 47.8434 20.0645 47.8434H8.02902C7.87989 48.3236 7.6179 48.7549 7.27529 49.1008C6.72309 49.6582 5.96131 50 5.12293 50C4.28053 50 3.52277 49.6582 2.97058 49.1008C2.41838 48.5433 2.07981 47.7743 2.07981 46.9279C2.07981 46.0775 2.41838 45.3125 2.97058 44.7551C3.52277 44.1976 4.28456 43.8558 5.12293 43.8558C5.96534 43.8558 6.72309 44.1976 7.27529 44.7551C7.53325 45.0155 7.74285 45.3206 7.89601 45.6584H18.9802V30.0537H13.5349V34.2692C13.5349 34.8714 13.0512 35.3597 12.4547 35.3597H5.88069C5.72753 35.7585 5.48972 36.1125 5.19549 36.4095C4.64329 36.967 3.8815 37.3088 3.04313 37.3088C2.20476 37.3088 1.44297 36.967 0.89077 36.4095C0.338573 35.8602 0 35.0912 0 34.2407C0 33.3903 0.338573 32.6253 0.89077 32.0679C1.44297 31.5104 2.20476 31.1686 3.04313 31.1686C3.8815 31.1686 4.64329 31.5104 5.19549 32.0679C5.50181 32.3771 5.74768 32.7596 5.90085 33.1747H11.3664V30.0497H10.7981L10.6247 30.0334C9.62112 29.9032 8.70617 29.6631 7.87989 29.3213C7.02539 28.9673 6.26763 28.5075 5.60258 27.9419C4.9738 27.4089 4.41757 26.8026 3.94599 26.1475C2.68843 24.4019 2.01532 22.2616 1.99919 20.1375C1.99516 17.9932 2.65619 15.8529 4.08706 14.1235C4.55058 13.562 5.09472 13.0493 5.71947 12.5936C6.44498 12.0606 7.27932 11.6089 8.21443 11.2427C8.85933 10.9863 9.5526 10.7747 10.2862 10.6079C11.1165 7.29167 12.8819 4.73227 15.1471 2.95411C17.2672 1.29395 19.8267 0.325527 22.4547 0.0732486C25.0705 -0.183099 27.767 0.264492 30.1854 1.43637C32.8295 2.71811 35.131 4.8462 36.6264 7.84506C37.2269 7.7474 37.8275 7.70264 38.4281 7.70671C40.9553 7.72299 43.3938 8.63445 45.3164 10.7259C45.7195 11.1654 46.0983 11.6537 46.4571 12.207C47.6622 14.0788 48.2749 16.569 48.2507 19.0145C48.2265 21.4111 47.5816 23.7956 46.2757 25.5534C44.4216 28.0436 41.5558 29.3335 38.6215 30.0171L38.3152 30.0537H37.6622V35.8805H44.1072C44.2604 35.4492 44.5062 35.0586 44.8206 34.7412C45.3527 34.1878 46.1145 33.842 46.9569 33.842ZM24.9819 11.5845C26.711 12.6913 28.2749 13.2162 29.6171 13.0941C29.8509 17.8792 28.1016 20.7072 24.998 21.8831C22.0032 20.7804 20.2297 18.0746 20.3628 13.0208C21.9387 13.1022 23.4865 12.7564 24.9819 11.5845ZM24.9738 7.97527C27.9162 9.85922 30.5764 10.7503 32.8577 10.5387C33.2567 18.6768 30.2781 23.4823 25.002 25.4883C19.9073 23.6125 16.8924 19.0145 17.1181 10.4167C19.7985 10.5591 22.4264 9.97315 24.9738 7.97527Z" fill="#132E58"/>
</g>
<defs>
<clipPath id="clip0_209_43">
<rect width="50" height="50" fill="white"/>
</clipPath>
</defs>
</svg>
