<svg width="22" height="22" viewBox="0 0 22 22" fill="none" xmlns="http://www.w3.org/2000/svg">
<path d="M18.8256 10.0912C18.8535 10.3533 18.8707 10.6197 18.875 10.8861V11.1139C18.86 12.1881 18.643 13.2279 18.2283 14.2098C18.2197 14.2291 18.2111 14.2463 18.2047 14.2656L18.1725 14.3365C18.1553 14.3752 18.1359 14.416 18.1187 14.4547C18.1102 14.4719 18.1016 14.4912 18.093 14.5084C18.0715 14.5557 18.0479 14.6029 18.0242 14.6502C18.0199 14.6588 18.0156 14.6652 18.0135 14.6738C17.7492 15.2045 17.4291 15.7029 17.0596 16.1627C17.0574 16.1648 17.0553 16.1691 17.0531 16.1713C17.0209 16.2121 16.9865 16.2529 16.9521 16.2938C16.9371 16.3109 16.9242 16.3281 16.9092 16.3453C16.8877 16.3711 16.8641 16.399 16.8404 16.4248C16.8146 16.4549 16.7867 16.485 16.7588 16.5172C16.7459 16.5301 16.7352 16.543 16.7223 16.5559C16.6836 16.5967 16.6471 16.6375 16.6084 16.6783L16.5977 16.6891C16.5074 16.7836 16.415 16.876 16.3205 16.9662L16.3098 16.977C16.2689 17.0156 16.2281 17.0543 16.1873 17.0908C16.1744 17.1037 16.1615 17.1145 16.1486 17.1273C16.1186 17.1553 16.0885 17.1811 16.0562 17.209C16.0305 17.2326 16.0047 17.2541 15.9768 17.2777C15.9596 17.2928 15.9424 17.3078 15.9252 17.3207C15.8844 17.3551 15.8436 17.3873 15.8027 17.4217C15.8006 17.4238 15.7963 17.426 15.7941 17.4281C15.3322 17.7998 14.8338 18.1199 14.3053 18.382C14.2967 18.3863 14.2902 18.3906 14.2816 18.3928C14.2344 18.4164 14.1871 18.44 14.1398 18.4615C14.1227 18.4701 14.1033 18.4787 14.0861 18.4873C14.0475 18.5045 14.0066 18.5238 13.968 18.541L13.8971 18.5732C13.8777 18.5818 13.8605 18.5904 13.8412 18.5969C12.8594 19.0115 11.8195 19.2285 10.7453 19.2436H10.5176C9.44336 19.2285 8.40352 19.0115 7.42168 18.5969C7.40234 18.5883 7.38516 18.5797 7.36582 18.5732L7.29492 18.541C7.25625 18.5238 7.21543 18.5045 7.17676 18.4873C7.15957 18.4787 7.14023 18.4701 7.12305 18.4615C7.07578 18.44 7.02852 18.4164 6.98125 18.3928C6.97266 18.3885 6.96621 18.3842 6.95762 18.382C6.42695 18.1178 5.92852 17.7977 5.46875 17.4281C5.4666 17.426 5.4623 17.4238 5.46016 17.4217C5.41934 17.3895 5.37852 17.3551 5.3377 17.3207C5.32051 17.3057 5.30332 17.2928 5.28613 17.2777C5.26035 17.2563 5.23242 17.2326 5.20664 17.209C5.17656 17.1832 5.14648 17.1553 5.11426 17.1273C5.10137 17.1145 5.08848 17.1037 5.07559 17.0908C5.03477 17.0521 4.99395 17.0156 4.95312 16.977L4.94238 16.9662C4.84785 16.876 4.75547 16.7836 4.66523 16.6891L4.65449 16.6783C4.61582 16.6375 4.57715 16.5967 4.54063 16.5559C4.52773 16.543 4.51699 16.5301 4.5041 16.5172C4.47617 16.4871 4.45039 16.457 4.42246 16.4248C4.39883 16.399 4.37734 16.3732 4.35371 16.3453C4.33867 16.3281 4.32363 16.3109 4.31074 16.2938C4.27637 16.2529 4.24414 16.2121 4.20977 16.1713C4.20762 16.1691 4.20547 16.1648 4.20117 16.1627C3.82949 15.7008 3.50938 15.2045 3.24727 14.6738C3.24297 14.6652 3.23867 14.6588 3.23652 14.6502C3.21289 14.6029 3.18926 14.5557 3.16777 14.5084C3.15918 14.4912 3.15059 14.4719 3.14199 14.4547C3.1248 14.416 3.10547 14.3752 3.08828 14.3365L3.05605 14.2656C3.04746 14.2463 3.03887 14.2291 3.03242 14.2098C2.61777 13.2279 2.40078 12.1881 2.38574 11.1139V11.1053V11V10.8947V10.8861C2.40078 9.81191 2.61777 8.77207 3.03242 7.79023C3.04102 7.7709 3.04961 7.75371 3.05605 7.73438L3.08828 7.66348C3.10547 7.6248 3.1248 7.58398 3.14199 7.54531C3.15059 7.52813 3.15918 7.50879 3.16777 7.4916C3.18926 7.44434 3.21289 7.39707 3.23652 7.3498C3.24082 7.34121 3.24512 7.33477 3.24727 7.32617C3.51152 6.79551 3.83164 6.29707 4.20117 5.83731C4.20332 5.83516 4.20547 5.83086 4.20977 5.82871C4.24199 5.78789 4.27637 5.74707 4.31074 5.70625C4.32578 5.68906 4.33867 5.67188 4.35371 5.65469C4.3752 5.62891 4.39883 5.60098 4.42246 5.5752C4.44824 5.54512 4.47617 5.51504 4.5041 5.48281C4.51699 5.46992 4.52773 5.45703 4.54063 5.44414C4.5793 5.40332 4.61582 5.3625 4.65449 5.32168L4.66523 5.31094C4.75547 5.21641 4.84785 5.12402 4.94238 5.03379L4.95312 5.02305C4.99395 4.98438 5.03477 4.9457 5.07559 4.90918C5.08848 4.89629 5.10137 4.88555 5.11426 4.87266C5.14434 4.84473 5.17441 4.81895 5.20664 4.79102C5.23242 4.76738 5.2582 4.7459 5.28613 4.72227C5.30332 4.70723 5.32051 4.69219 5.3377 4.6793C5.37852 4.64492 5.41934 4.6127 5.46016 4.57832C5.4623 4.57617 5.4666 4.57402 5.46875 4.57188C5.93066 4.2002 6.4291 3.88008 6.95762 3.61797C6.96621 3.61367 6.97266 3.60937 6.98125 3.60723C7.02852 3.58359 7.07578 3.55996 7.12305 3.53848C7.14023 3.52988 7.15957 3.52129 7.17676 3.5127C7.21543 3.49551 7.25625 3.47617 7.29492 3.45898L7.36582 3.42676C7.38516 3.41816 7.40234 3.40957 7.42168 3.40312C8.40352 2.98848 9.44336 2.77148 10.5176 2.75645H10.7453C11.0139 2.76074 11.2781 2.77578 11.5424 2.80586L11.6949 1.43945C11.3383 1.39434 10.9838 1.375 10.625 1.375C5.30977 1.375 1 5.68477 1 11C1 16.3152 5.30977 20.625 10.625 20.625C15.9402 20.625 20.25 16.3152 20.25 11C20.25 10.6412 20.2307 10.2867 20.192 9.93867L18.8256 10.0912Z" fill="#132E58"/>
<path d="M7.28601 3.76172C7.32336 3.74512 7.36279 3.72644 7.40015 3.70984C7.36279 3.72644 7.32544 3.74512 7.28601 3.76172ZM7.52258 3.65796C7.50391 3.66626 7.4873 3.67456 7.46863 3.68079C8.40454 3.27612 9.43176 3.04785 10.5129 3.03333C9.47742 3.04578 8.47095 3.25537 7.52258 3.65796ZM5.50757 4.89063C5.547 4.85742 5.58643 4.82629 5.62585 4.79309C5.58643 4.82629 5.547 4.8595 5.50757 4.89063ZM5.63416 4.78687C6.07825 4.42993 6.55969 4.12073 7.07227 3.86548C6.56177 4.11865 6.08032 4.42786 5.63416 4.78687ZM7.40015 18.2902C7.36279 18.2736 7.32336 18.257 7.28601 18.2383C7.32544 18.2549 7.36279 18.2736 7.40015 18.2902ZM5.38098 4.99854C5.40588 4.97571 5.43079 4.95496 5.45776 4.93213C5.43286 4.95496 5.40796 4.97778 5.38098 4.99854ZM7.52258 18.342C8.47095 18.7426 9.47534 18.9521 10.5129 18.9667C9.43176 18.9521 8.40454 18.7218 7.46863 18.3192C7.4873 18.3275 7.50598 18.3358 7.52258 18.342ZM13.7274 18.342C13.7461 18.3337 13.7627 18.3254 13.7814 18.3192C12.8455 18.7239 11.8182 18.9521 10.7371 18.9667C11.7726 18.9542 12.7791 18.7446 13.7274 18.342ZM5.62585 17.2069C5.58643 17.1758 5.547 17.1426 5.50757 17.1094C5.547 17.1405 5.58643 17.1737 5.62585 17.2069ZM7.07434 18.1366C6.55969 17.8813 6.07825 17.5701 5.63623 17.2152C6.08032 17.5721 6.56177 17.8813 7.07434 18.1366ZM5.45776 17.0658C5.43286 17.045 5.40588 17.0222 5.38098 16.9994C5.40796 17.0222 5.43286 17.045 5.45776 17.0658ZM3.28296 7.89758C2.88245 8.84595 2.67285 9.85034 2.65833 10.8879C2.67285 9.80676 2.9032 8.77954 3.30579 7.84363C3.29749 7.8623 3.28918 7.88098 3.28296 7.89758ZM3.33484 7.77722C3.35144 7.73987 3.37012 7.70044 3.38672 7.66309C3.37012 7.70044 3.35144 7.73779 3.33484 7.77722ZM3.4884 7.44934C3.74365 6.93469 4.05493 6.45325 4.40979 6.01123C4.05286 6.45532 3.74365 6.93677 3.4884 7.44934ZM4.41187 15.9908C4.05493 15.5468 3.74573 15.0653 3.49048 14.5527C3.74365 15.0632 4.05286 15.5447 4.41187 15.9908ZM3.28296 14.1024C3.29126 14.1211 3.29956 14.1377 3.30579 14.1564C2.90112 13.2205 2.67285 12.1932 2.65833 11.1121C2.67078 12.1476 2.88037 13.1541 3.28296 14.1024ZM4.5592 5.83276C4.57996 5.80786 4.60278 5.78088 4.62561 5.75598C4.60278 5.78296 4.57996 5.80786 4.5592 5.83276ZM4.73767 16.3706C4.72522 16.3582 4.71484 16.3457 4.70239 16.3333C4.71484 16.3436 4.72522 16.3561 4.73767 16.3706ZM4.51563 16.1174C4.48242 16.078 4.45129 16.0386 4.41809 15.9991C4.45129 16.0386 4.4845 16.078 4.51563 16.1174ZM4.41809 6.00085C4.44922 5.96143 4.48242 5.922 4.51563 5.88257C4.4845 5.922 4.45129 5.96143 4.41809 6.00085ZM5.25439 5.11267C5.26685 5.10022 5.2793 5.08984 5.29175 5.07739C5.28137 5.08984 5.26892 5.10022 5.25439 5.11267ZM4.62354 16.244C4.60071 16.2191 4.57996 16.1942 4.55713 16.1672C4.57996 16.1921 4.60278 16.217 4.62354 16.244ZM17.7616 14.5507C17.5063 15.0653 17.1951 15.5468 16.8402 15.9888C17.1971 15.5447 17.5063 15.0632 17.7616 14.5507ZM17.9152 14.2249C17.8986 14.2622 17.882 14.3016 17.8633 14.339C17.8799 14.2996 17.8986 14.2622 17.9152 14.2249ZM15.9956 16.8873C15.9832 16.8998 15.9707 16.9102 15.9583 16.9226C15.9686 16.9102 15.9811 16.8998 15.9956 16.8873ZM15.869 17.0015C15.8441 17.0243 15.8192 17.045 15.7922 17.0679C15.8171 17.045 15.842 17.0222 15.869 17.0015ZM18.5938 10.89C18.5896 10.6327 18.5751 10.3754 18.546 10.1222C18.573 10.3754 18.5896 10.6306 18.5938 10.89ZM11.5049 3.07898C11.2496 3.052 10.9944 3.0354 10.735 3.03125C10.9944 3.0354 11.2517 3.052 11.5049 3.07898ZM3.38672 14.339C3.37012 14.3016 3.35144 14.2622 3.33484 14.2249C3.35144 14.2622 3.37012 14.2996 3.38672 14.339ZM16.8319 15.9991C16.8008 16.0386 16.7676 16.078 16.7344 16.1174C16.7655 16.078 16.7987 16.0386 16.8319 15.9991ZM15.7424 17.1094C15.703 17.1426 15.6636 17.1737 15.6241 17.2069C15.6636 17.1737 15.703 17.1405 15.7424 17.1094ZM16.6908 16.1672C16.67 16.1921 16.6472 16.2191 16.6244 16.244C16.6472 16.217 16.67 16.1921 16.6908 16.1672ZM13.964 18.2383C13.9266 18.2549 13.8872 18.2736 13.8499 18.2902C13.8872 18.2736 13.9246 18.2549 13.964 18.2383ZM15.6158 17.2131C15.1718 17.5701 14.6903 17.8793 14.1777 18.1345C14.6882 17.8813 15.1697 17.5721 15.6158 17.2131ZM17.967 14.1024C18.3676 13.1541 18.5771 12.1497 18.5917 11.1121C18.5771 12.1932 18.3468 13.2205 17.9442 14.1564C17.9525 14.1377 17.9608 14.119 17.967 14.1024Z" fill="#132E58"/>
<path d="M14.5801 10.5621C14.5967 10.7053 14.605 10.8527 14.605 11C14.605 13.1976 12.8224 14.9802 10.6248 14.9802C8.42712 14.9802 6.64453 13.1976 6.64453 11C6.64453 8.80237 8.42712 7.01978 10.6248 7.01978C10.7742 7.01978 10.9194 7.02808 11.0647 7.04468L11.5046 3.07898C11.2515 3.052 10.9941 3.0354 10.7347 3.03125H10.5148C9.43359 3.04578 8.40637 3.27612 7.47046 3.67871L7.40198 3.70984C7.36462 3.72644 7.3252 3.74304 7.28784 3.76172C7.27124 3.77002 7.25256 3.77832 7.23596 3.78662C7.19031 3.80737 7.14465 3.8302 7.099 3.85303C7.0907 3.85718 7.08447 3.86133 7.07617 3.8634C6.56152 4.11865 6.08008 4.42993 5.63806 4.78479C5.63599 4.78687 5.63184 4.78894 5.62976 4.79102C5.59033 4.82214 5.5509 4.85535 5.51147 4.88855C5.49487 4.90308 5.47827 4.91553 5.46167 4.93005C5.43677 4.95081 5.40979 4.97363 5.38489 4.99646C5.35583 5.02136 5.32678 5.04834 5.29565 5.07532C5.2832 5.08777 5.27075 5.09814 5.2583 5.1106C5.21887 5.14795 5.17944 5.18323 5.14001 5.22058L5.12964 5.23096C5.08398 5.27454 5.03833 5.31811 4.99475 5.36377C4.95117 5.40942 4.90552 5.453 4.86194 5.49866L4.85156 5.50903C4.81421 5.54846 4.77686 5.58789 4.74158 5.62732C4.72913 5.63977 4.71875 5.65222 4.7063 5.66467C4.67932 5.69373 4.65442 5.72278 4.62744 5.75391C4.60461 5.77881 4.58386 5.80371 4.56104 5.83069C4.54651 5.84729 4.53198 5.86389 4.51953 5.88049C4.48633 5.91992 4.4552 5.95935 4.422 5.99878C4.41992 6.00085 4.41785 6.005 4.4137 6.00708C4.05676 6.45117 3.74756 6.93262 3.49231 7.44519C3.48816 7.45349 3.48401 7.45972 3.48193 7.46802C3.45911 7.51367 3.43628 7.55933 3.41553 7.60498C3.40723 7.62158 3.39893 7.64026 3.39062 7.65686C3.37402 7.69421 3.35535 7.73364 3.33875 7.771L3.30762 7.83948C2.90295 8.77539 2.67468 9.80261 2.66016 10.8838V11.1038C2.67468 12.1849 2.90503 13.2122 3.30762 14.1481L3.33875 14.2166C3.35535 14.2539 3.37195 14.2933 3.39062 14.3307C3.39893 14.3473 3.40723 14.366 3.41553 14.3826C3.43628 14.4282 3.45911 14.4739 3.48193 14.5195C3.48608 14.5278 3.49023 14.5341 3.49231 14.5424C3.74756 15.0549 4.05884 15.5385 4.4137 15.9805C4.41577 15.9825 4.41785 15.9867 4.422 15.9888C4.45313 16.0282 4.48633 16.0676 4.51953 16.1071C4.53406 16.1237 4.54651 16.1403 4.56104 16.1569C4.58179 16.1818 4.60461 16.2087 4.62744 16.2336C4.65234 16.2627 4.67932 16.2917 4.7063 16.3229C4.71875 16.3353 4.72913 16.3478 4.74158 16.3602C4.77893 16.3997 4.81421 16.4391 4.85156 16.4785L4.86194 16.4889C4.90552 16.5345 4.9491 16.5802 4.99475 16.6238C5.04041 16.6674 5.08398 16.713 5.12964 16.7566L5.14001 16.767C5.17944 16.8043 5.21887 16.8417 5.2583 16.877C5.27075 16.8894 5.2832 16.8998 5.29565 16.9122C5.32471 16.9392 5.35376 16.9641 5.38489 16.9911C5.40979 17.0139 5.43469 17.0347 5.46167 17.0575C5.47827 17.072 5.49487 17.0865 5.51147 17.099C5.5509 17.1322 5.59033 17.1633 5.62976 17.1965C5.63184 17.1986 5.63599 17.2007 5.63806 17.2028C6.08215 17.5597 6.5636 17.8689 7.07617 18.1241C7.08447 18.1283 7.0907 18.1324 7.099 18.1345C7.14465 18.1573 7.19031 18.1802 7.23596 18.2009C7.25256 18.2092 7.27124 18.2175 7.28784 18.2258C7.3252 18.2424 7.36462 18.2611 7.40198 18.2777L7.47046 18.3088C8.40637 18.7135 9.43359 18.9418 10.5148 18.9563H10.7347C11.8159 18.9418 12.8431 18.7114 13.7791 18.3088L13.8475 18.2777C13.8849 18.2611 13.9243 18.2445 13.9617 18.2258C13.9783 18.2175 13.9969 18.2092 14.0135 18.2009C14.0592 18.1802 14.1049 18.1573 14.1505 18.1345C14.1588 18.1304 14.165 18.1262 14.1733 18.1241C14.688 17.8689 15.1694 17.5576 15.6114 17.2028C15.6135 17.2007 15.6177 17.1986 15.6198 17.1965C15.6592 17.1654 15.6986 17.1322 15.738 17.099C15.7546 17.0845 15.7712 17.072 15.7878 17.0575C15.8127 17.0367 15.8397 17.0139 15.8646 16.9911C15.8937 16.9662 15.9227 16.9392 15.9539 16.9122C15.9663 16.8998 15.9788 16.8894 15.9912 16.877C16.0306 16.8396 16.0701 16.8043 16.1095 16.767L16.1199 16.7566C16.1655 16.713 16.2112 16.6694 16.2548 16.6238C16.2983 16.5781 16.344 16.5345 16.3876 16.4889L16.3979 16.4785C16.4353 16.4391 16.4727 16.3997 16.5079 16.3602C16.5204 16.3478 16.5308 16.3353 16.5432 16.3229C16.5702 16.2938 16.5951 16.2648 16.6221 16.2336C16.6449 16.2087 16.6656 16.1838 16.6885 16.1569C16.703 16.1403 16.7175 16.1237 16.73 16.1071C16.7632 16.0676 16.7943 16.0282 16.8275 15.9888C16.8296 15.9867 16.8317 15.9825 16.8337 15.9805C17.1907 15.5364 17.4999 15.0549 17.7551 14.5424C17.7593 14.5341 17.7634 14.5278 17.7655 14.5195C17.7883 14.4739 17.8112 14.4282 17.8319 14.3826C17.8402 14.366 17.8485 14.3473 17.8568 14.3307C17.8734 14.2933 17.8921 14.2539 17.9087 14.2166L17.9398 14.1481C18.3445 13.2122 18.5728 12.1849 18.5873 11.1038V11.0955V10.9938V10.8921V10.8838C18.5831 10.6244 18.5686 10.3691 18.5396 10.116L14.5801 10.5621Z" fill="#132E58"/>
<path d="M3.41162 14.3909C3.40332 14.3743 3.39502 14.3556 3.38672 14.339C3.39502 14.3556 3.40332 14.3722 3.41162 14.3909ZM17.772 14.5278C17.7678 14.5361 17.7637 14.5424 17.7616 14.5507C17.7637 14.5444 17.7678 14.5361 17.772 14.5278ZM3.4884 14.5507C3.48425 14.5424 3.4801 14.5361 3.47803 14.5278C3.48218 14.5361 3.48633 14.5444 3.4884 14.5507ZM17.9442 14.1543L17.9131 14.2228C17.9255 14.2 17.9338 14.1771 17.9442 14.1543ZM17.8633 14.339C17.855 14.3556 17.8467 14.3743 17.8384 14.3909C17.8467 14.3722 17.855 14.3556 17.8633 14.339ZM7.09717 18.147C7.08887 18.1428 7.08264 18.1387 7.07434 18.1366C7.08057 18.1387 7.08887 18.1428 7.09717 18.147ZM13.8499 18.2902L13.7814 18.3213C13.8021 18.3088 13.825 18.3005 13.8499 18.2902ZM14.1757 18.1366C14.1674 18.1407 14.1611 18.1449 14.1528 18.147C14.1611 18.1428 14.1694 18.1387 14.1757 18.1366ZM7.28601 18.2383C7.26941 18.23 7.25073 18.2217 7.23413 18.2134C7.25281 18.2217 7.26941 18.23 7.28601 18.2383ZM14.0159 18.2134C13.9993 18.2217 13.9806 18.23 13.964 18.2383C13.9806 18.23 13.9972 18.2217 14.0159 18.2134ZM7.4707 18.3192L7.40222 18.2881C7.42505 18.3005 7.44788 18.3088 7.4707 18.3192ZM5.50757 17.1094C5.49097 17.0948 5.47437 17.0824 5.45776 17.0679C5.47437 17.0803 5.49097 17.0948 5.50757 17.1094ZM16.6265 16.244C16.6016 16.2731 16.5746 16.3021 16.5476 16.3333C16.5746 16.3021 16.5995 16.2731 16.6265 16.244ZM16.7344 16.1174C16.7198 16.134 16.7074 16.1506 16.6929 16.1672C16.7053 16.1506 16.7198 16.134 16.7344 16.1174ZM16.5123 16.3706C16.475 16.41 16.4397 16.4495 16.4023 16.4889C16.4397 16.4495 16.4771 16.41 16.5123 16.3706ZM5.38098 17.0015C5.35193 16.9766 5.32288 16.9496 5.29175 16.9226C5.32288 16.9496 5.35193 16.9745 5.38098 17.0015ZM5.25439 16.8873C5.21497 16.85 5.17554 16.8147 5.13611 16.7773C5.17554 16.8147 5.21497 16.8521 5.25439 16.8873ZM7.40015 3.70984L7.46863 3.67871C7.44788 3.69116 7.42505 3.69946 7.40015 3.70984ZM7.07434 3.8634C7.08264 3.85925 7.08887 3.8551 7.09717 3.85303C7.08887 3.85718 7.08057 3.86133 7.07434 3.8634ZM7.23413 3.78662C7.25073 3.77832 7.26941 3.77002 7.28601 3.76172C7.26941 3.77002 7.25281 3.77832 7.23413 3.78662ZM5.12573 5.23303C5.03442 5.32019 4.94519 5.40942 4.85803 5.50073C4.90161 5.45508 4.94519 5.40942 4.99084 5.36584C5.0365 5.32227 5.08008 5.27661 5.12573 5.23303ZM3.33484 14.2249L3.30371 14.1564C3.31616 14.1771 3.32446 14.2 3.33484 14.2249ZM16.1243 16.767C16.2156 16.6798 16.3048 16.5906 16.392 16.4993C16.3484 16.5449 16.3048 16.5906 16.2592 16.6342C16.2135 16.6777 16.1699 16.7234 16.1243 16.767ZM4.85803 16.4993C4.94519 16.5906 5.03442 16.6798 5.12573 16.767C5.08008 16.7234 5.03442 16.6798 4.99084 16.6342C4.94727 16.5885 4.90161 16.5449 4.85803 16.4993ZM3.30579 7.8457L3.33691 7.77722C3.32446 7.80005 3.31616 7.82288 3.30579 7.8457ZM3.47803 7.47217C3.48218 7.46387 3.48633 7.45764 3.4884 7.44934C3.48633 7.45557 3.48218 7.46387 3.47803 7.47217ZM3.38672 7.66101C3.39502 7.64441 3.40332 7.62573 3.41162 7.60913C3.40332 7.62781 3.39502 7.64441 3.38672 7.66101ZM4.62354 5.75598C4.64844 5.72693 4.67542 5.69788 4.70239 5.66675C4.67542 5.69788 4.65051 5.72693 4.62354 5.75598ZM4.51563 5.88257C4.53015 5.86597 4.5426 5.84937 4.55713 5.83276C4.54468 5.84937 4.53015 5.86597 4.51563 5.88257ZM4.73767 5.62939C4.77502 5.58997 4.8103 5.55054 4.84766 5.51111C4.8103 5.55054 4.77295 5.58997 4.73767 5.62939Z" fill="#132E58"/>
<path d="M17.8633 7.66064C17.8799 7.698 17.8986 7.73743 17.9152 7.77478C17.8986 7.73743 17.8799 7.70007 17.8633 7.66064ZM16.8381 6.00879C17.1951 6.45288 17.5043 6.93433 17.7616 7.4469C17.5063 6.9364 17.1971 6.45496 16.8381 6.00879ZM17.9442 7.84534C18.1393 8.2998 18.2949 8.77502 18.4049 9.26685C18.3011 8.79993 18.1559 8.34338 17.967 7.89929C17.9608 7.88062 17.9525 7.86194 17.9442 7.84534ZM13.7793 3.68042C13.7606 3.67212 13.744 3.66382 13.7253 3.65759C13.2792 3.46875 12.8206 3.32349 12.3516 3.21973C12.8475 3.32764 13.3248 3.48328 13.7793 3.68042ZM16.5123 5.62903C16.5248 5.64148 16.5352 5.65393 16.5476 5.66638C16.5352 5.65601 16.5248 5.64355 16.5123 5.62903ZM14.1757 3.86304C14.6903 4.11829 15.1718 4.42957 15.6138 4.78442C15.1697 4.42749 14.6882 4.11829 14.1757 3.86304ZM15.7922 4.93384C15.8171 4.95459 15.8441 4.97742 15.869 5.00024C15.842 4.97742 15.8171 4.95459 15.7922 4.93384ZM15.6241 4.79272C15.6636 4.82385 15.703 4.85706 15.7424 4.89026C15.703 4.85913 15.6636 4.82593 15.6241 4.79272ZM16.6265 5.75561C16.6493 5.78052 16.67 5.80542 16.6929 5.8324C16.67 5.80749 16.6472 5.78259 16.6265 5.75561ZM13.8499 3.70947C13.8872 3.72607 13.9266 3.74268 13.964 3.76135C13.9246 3.74475 13.8872 3.72607 13.8499 3.70947ZM16.7344 5.8822C16.7676 5.92163 16.7987 5.96106 16.8319 6.00049C16.7987 5.96106 16.7655 5.92163 16.7344 5.8822Z" fill="#DE992F"/>
<path d="M17.915 7.77759C17.8984 7.74023 17.8798 7.70081 17.8632 7.66345C17.8549 7.64685 17.8466 7.62817 17.8383 7.61157C17.8175 7.56592 17.7947 7.52026 17.7719 7.47461C17.7677 7.46631 17.7636 7.46008 17.7615 7.45178C17.5062 6.93713 17.1949 6.45569 16.838 6.01367C16.8359 6.0116 16.8339 6.00745 16.8318 6.00537C16.8007 5.96594 16.7675 5.92651 16.7343 5.88708C16.7197 5.87048 16.7073 5.85388 16.6927 5.83728C16.672 5.81238 16.6492 5.7854 16.6263 5.7605C16.6014 5.73145 16.5745 5.70239 16.5475 5.67126C16.535 5.65881 16.5247 5.64636 16.5122 5.63391C16.4749 5.59448 16.4396 5.55505 16.4022 5.51562L16.3918 5.50525C16.3483 5.45959 16.3047 5.41394 16.259 5.37036C16.2134 5.32678 16.1698 5.28113 16.1241 5.23755L16.1138 5.22717C16.0743 5.18982 16.0349 5.15247 15.9955 5.11719C15.983 5.10474 15.9706 5.09436 15.9581 5.08191C15.9291 5.05493 15.9 5.03003 15.8689 5.00305C15.844 4.98022 15.8191 4.95947 15.7921 4.93665C15.7755 4.92212 15.7589 4.90759 15.7423 4.89514C15.7029 4.86194 15.6635 4.83081 15.624 4.79761C15.6219 4.79553 15.6178 4.79346 15.6157 4.79138C15.1716 4.43445 14.6902 4.12524 14.1776 3.86999C14.1693 3.86584 14.1631 3.86169 14.1548 3.85962C14.1091 3.83679 14.0635 3.81396 14.0178 3.79321C14.0012 3.78491 13.9825 3.77661 13.9659 3.76831C13.9286 3.75171 13.8892 3.73303 13.8518 3.71643L13.7833 3.6853C13.3289 3.48816 12.8516 3.33252 12.3556 3.22461L11.4902 7.11975C12.9948 7.45178 14.1797 8.63672 14.5117 10.1392L18.4069 9.27173C18.2969 8.77991 18.1433 8.30469 17.9462 7.85022C17.9337 7.82324 17.9254 7.80042 17.915 7.77759Z" fill="#DE992F"/>
<path d="M13.7792 3.68054L13.8477 3.71167C13.885 3.72827 13.9244 3.74695 13.9618 3.76355C13.9784 3.77185 13.9971 3.78015 14.0137 3.78845C14.0593 3.8092 14.105 3.83203 14.1506 3.85486C14.1589 3.85901 14.1652 3.86316 14.1735 3.86523C14.686 4.12048 15.1675 4.42969 15.6116 4.78662C15.6136 4.7887 15.6178 4.79077 15.6199 4.79285C15.6593 4.82397 15.6987 4.85718 15.7382 4.89038C15.7548 4.90491 15.7714 4.91736 15.788 4.93189C15.8129 4.95264 15.8398 4.97546 15.8647 4.99829C15.8938 5.02319 15.9229 5.05017 15.954 5.07715C15.9664 5.0896 15.9789 5.09998 15.9913 5.11243C16.0308 5.14978 16.0702 5.18506 16.1096 5.22241L16.12 5.23279C16.2113 5.31995 16.3005 5.40918 16.3877 5.50049L16.3981 5.51086C16.4354 5.55029 16.4728 5.58972 16.5081 5.62915C16.5205 5.6416 16.5309 5.65405 16.5433 5.6665C16.5703 5.69556 16.5952 5.72461 16.6222 5.75574C16.645 5.78064 16.6658 5.80554 16.6886 5.83252C16.7031 5.84912 16.7177 5.86572 16.7301 5.88232C16.7633 5.92175 16.7944 5.96118 16.8276 6.00061C16.8297 6.00269 16.8318 6.00684 16.8339 6.00891C17.1929 6.45508 17.5021 6.93652 17.7573 7.44702C17.7615 7.45532 17.7656 7.46155 17.7677 7.46985C17.7905 7.5155 17.8134 7.56116 17.8341 7.60681C17.8424 7.62341 17.8507 7.64209 17.859 7.65869C17.8756 7.69605 17.8943 7.73547 17.9109 7.77283L17.942 7.84131C17.9503 7.85999 17.9586 7.87659 17.9648 7.89526C18.1537 8.33936 18.299 8.7959 18.4027 9.26282L19.6976 8.97437C18.9215 5.46521 16.1553 2.69897 12.6399 1.92285L12.3535 3.21777C12.8225 3.32153 13.2811 3.4668 13.7273 3.65564C13.7439 3.66394 13.7626 3.67224 13.7792 3.68054Z" fill="#FFFF8D"/>
<path d="M13.7793 3.68066L13.8478 3.71179C13.825 3.69934 13.8021 3.69104 13.7793 3.68066ZM15.7424 4.8905C15.759 4.90503 15.7756 4.91748 15.7922 4.93201C15.7756 4.91956 15.759 4.90503 15.7424 4.8905ZM13.964 3.7616C13.9806 3.7699 13.9993 3.7782 14.0159 3.7865C13.9972 3.7782 13.9806 3.7699 13.964 3.7616ZM14.1528 3.85291C14.1611 3.85706 14.1674 3.86121 14.1757 3.86328C14.1694 3.86121 14.1611 3.85706 14.1528 3.85291ZM17.8384 7.60901C17.8467 7.62561 17.855 7.64429 17.8633 7.66089C17.855 7.64429 17.8467 7.62769 17.8384 7.60901ZM17.9152 7.7771L17.9463 7.84558C17.9338 7.82275 17.9255 7.79993 17.9152 7.7771ZM17.7616 7.44922C17.7657 7.45752 17.7699 7.46375 17.772 7.47205C17.7678 7.46375 17.7637 7.45544 17.7616 7.44922ZM15.869 4.99841C15.8981 5.02332 15.9271 5.05029 15.9583 5.07727C15.9271 5.05029 15.8981 5.02539 15.869 4.99841ZM16.392 5.50061C16.3048 5.4093 16.2156 5.32007 16.1243 5.23291C16.1699 5.27649 16.2156 5.32007 16.2592 5.36572C16.3027 5.41138 16.3484 5.45496 16.392 5.50061ZM15.9956 5.11255C16.035 5.1499 16.0745 5.18518 16.1139 5.22253C16.0745 5.18518 16.035 5.14783 15.9956 5.11255Z" fill="#DE992F"/>
</svg>
