<svg width="32" height="32" viewBox="0 0 32 32" fill="none" xmlns="http://www.w3.org/2000/svg">
<path d="M18.24 14.24C17.76 14.24 17.376 13.856 17.376 13.376V7.84C17.376 7.36 17.76 6.976 18.24 6.976H23.872C24.352 6.976 24.736 7.36 24.736 7.84V13.376C24.736 13.856 24.352 14.24 23.872 14.24H18.24Z" fill="white"/>
<path d="M20.672 17.504L17.376 21.056C17.184 21.248 17.184 21.6 17.376 21.792L20.672 25.344C20.896 25.568 21.248 25.568 21.472 25.344L24.768 21.792C24.96 21.6 24.96 21.248 24.768 21.056L21.472 17.504C21.248 17.28 20.864 17.28 20.672 17.504Z" fill="url(#paint0_linear_176_56)"/>
<path d="M10.816 25.024C12.8661 25.024 14.528 23.3621 14.528 21.312C14.528 19.2619 12.8661 17.6 10.816 17.6C8.76592 17.6 7.104 19.2619 7.104 21.312C7.104 23.3621 8.76592 25.024 10.816 25.024Z" fill="white"/>
<path d="M7.552 8.224L10.4 6.592C10.656 6.432 10.976 6.432 11.264 6.592L14.112 8.224C14.368 8.384 14.528 8.672 14.528 8.96V12.224C14.528 12.512 14.368 12.8 14.112 12.96L11.264 14.592C11.008 14.752 10.688 14.752 10.4 14.592L7.552 12.96C7.296 12.8 7.104 12.512 7.104 12.224V8.96C7.104 8.64 7.296 8.352 7.552 8.224Z" fill="url(#paint1_linear_176_56)"/>
<defs>
<linearGradient id="paint0_linear_176_56" x1="21.072" y1="17.336" x2="21.072" y2="25.512" gradientUnits="userSpaceOnUse">
<stop stop-color="#FACC15"/>
<stop offset="1" stop-color="#FBBF24"/>
</linearGradient>
<linearGradient id="paint1_linear_176_56" x1="10.816" y1="6.472" x2="10.816" y2="14.712" gradientUnits="userSpaceOnUse">
<stop stop-color="#FACC15"/>
<stop offset="1" stop-color="#FBBF24"/>
</linearGradient>
</defs>
</svg>
