<svg width="32" height="32" viewBox="0 0 32 32" fill="none" xmlns="http://www.w3.org/2000/svg">
<path d="M18.24 14.24C17.76 14.24 17.376 13.856 17.376 13.376V7.84001C17.376 7.36001 17.76 6.97601 18.24 6.97601H23.872C24.352 6.97601 24.736 7.36001 24.736 7.84001V13.376C24.736 13.856 24.352 14.24 23.872 14.24H18.24Z" fill="url(#paint0_linear_332_102)"/>
<path d="M20.6719 17.504L17.3759 21.056C17.1839 21.248 17.1839 21.6 17.3759 21.792L20.6719 25.344C20.8959 25.568 21.2479 25.568 21.4719 25.344L24.7679 21.792C24.9599 21.6 24.9599 21.248 24.7679 21.056L21.4719 17.504C21.2479 17.28 20.8639 17.28 20.6719 17.504Z" fill="#1D4ED8"/>
<path d="M10.816 25.024C12.8661 25.024 14.528 23.3621 14.528 21.312C14.528 19.2619 12.8661 17.6 10.816 17.6C8.76592 17.6 7.104 19.2619 7.104 21.312C7.104 23.3621 8.76592 25.024 10.816 25.024Z" fill="url(#paint1_linear_332_102)"/>
<path d="M7.552 8.22398L10.4 6.59198C10.656 6.43198 10.976 6.43198 11.264 6.59198L14.112 8.22398C14.368 8.38398 14.528 8.67198 14.528 8.95998V12.224C14.528 12.512 14.368 12.8 14.112 12.96L11.264 14.592C11.008 14.752 10.688 14.752 10.4 14.592L7.552 12.96C7.296 12.8 7.104 12.512 7.104 12.224V8.95998C7.104 8.63998 7.296 8.35198 7.552 8.22398Z" fill="#1D4ED8"/>
<defs>
<linearGradient id="paint0_linear_332_102" x1="17.376" y1="10.608" x2="24.736" y2="10.608" gradientUnits="userSpaceOnUse">
<stop stop-color="#DE992F"/>
<stop offset="0.0625" stop-color="#E0982E"/>
<stop offset="0.125" stop-color="#E2972E"/>
<stop offset="0.1875" stop-color="#E4962D"/>
<stop offset="0.25" stop-color="#E6962D"/>
<stop offset="0.3125" stop-color="#E8952C"/>
<stop offset="0.375" stop-color="#EA942C"/>
<stop offset="0.4375" stop-color="#EC932B"/>
<stop offset="0.5" stop-color="#EF922B"/>
<stop offset="0.5625" stop-color="#F1912A"/>
<stop offset="0.625" stop-color="#F39029"/>
<stop offset="0.6875" stop-color="#F58F29"/>
<stop offset="0.75" stop-color="#F78F28"/>
<stop offset="0.8125" stop-color="#F98E28"/>
<stop offset="0.875" stop-color="#FB8D27"/>
<stop offset="0.9375" stop-color="#FD8C27"/>
<stop offset="1" stop-color="#FF8B26"/>
</linearGradient>
<linearGradient id="paint1_linear_332_102" x1="7.104" y1="21.312" x2="14.528" y2="21.312" gradientUnits="userSpaceOnUse">
<stop stop-color="#DE992F"/>
<stop offset="0.0625" stop-color="#E0982E"/>
<stop offset="0.125" stop-color="#E2972E"/>
<stop offset="0.1875" stop-color="#E4962D"/>
<stop offset="0.25" stop-color="#E6962D"/>
<stop offset="0.3125" stop-color="#E8952C"/>
<stop offset="0.375" stop-color="#EA942C"/>
<stop offset="0.4375" stop-color="#EC932B"/>
<stop offset="0.5" stop-color="#EF922B"/>
<stop offset="0.5625" stop-color="#F1912A"/>
<stop offset="0.625" stop-color="#F39029"/>
<stop offset="0.6875" stop-color="#F58F29"/>
<stop offset="0.75" stop-color="#F78F28"/>
<stop offset="0.8125" stop-color="#F98E28"/>
<stop offset="0.875" stop-color="#FB8D27"/>
<stop offset="0.9375" stop-color="#FD8C27"/>
<stop offset="1" stop-color="#FF8B26"/>
</linearGradient>
</defs>
</svg>
