<svg width="404" height="275" viewBox="0 0 404 275" fill="none" xmlns="http://www.w3.org/2000/svg">
<g clip-path="url(#clip0_228_884)">
<rect width="404" height="275" rx="8" fill="white"/>
<rect y="-1" width="404" height="69" fill="#132E58"/>
<rect x="129" y="21" width="51" height="25" rx="2" fill="#FF3B30"/>
<path d="M39.1 31.24C38.78 30.6533 38.34 30.2067 37.78 29.9C37.22 29.5933 36.5667 29.44 35.82 29.44C34.9933 29.44 34.26 29.6267 33.62 30C32.98 30.3733 32.48 30.9067 32.12 31.6C31.76 32.2933 31.58 33.0933 31.58 34C31.58 34.9333 31.76 35.7467 32.12 36.44C32.4933 37.1333 33.0067 37.6667 33.66 38.04C34.3133 38.4133 35.0733 38.6 35.94 38.6C37.0067 38.6 37.88 38.32 38.56 37.76C39.24 37.1867 39.6867 36.3933 39.9 35.38H35.1V33.24H42.66V35.68C42.4733 36.6533 42.0733 37.5533 41.46 38.38C40.8467 39.2067 40.0533 39.8733 39.08 40.38C38.12 40.8733 37.04 41.12 35.84 41.12C34.4933 41.12 33.2733 40.82 32.18 40.22C31.1 39.6067 30.2467 38.76 29.62 37.68C29.0067 36.6 28.7 35.3733 28.7 34C28.7 32.6267 29.0067 31.4 29.62 30.32C30.2467 29.2267 31.1 28.38 32.18 27.78C33.2733 27.1667 34.4867 26.86 35.82 26.86C37.3933 26.86 38.76 27.2467 39.92 28.02C41.08 28.78 41.88 29.8533 42.32 31.24H39.1ZM52.5316 33.84C53.3182 33.9867 53.9649 34.38 54.4716 35.02C54.9782 35.66 55.2316 36.3933 55.2316 37.22C55.2316 37.9667 55.0449 38.6267 54.6716 39.2C54.3116 39.76 53.7849 40.2 53.0916 40.52C52.3982 40.84 51.5782 41 50.6316 41H44.6116V27.04H50.3716C51.3182 27.04 52.1316 27.1933 52.8116 27.5C53.5049 27.8067 54.0249 28.2333 54.3716 28.78C54.7316 29.3267 54.9116 29.9467 54.9116 30.64C54.9116 31.4533 54.6916 32.1333 54.2516 32.68C53.8249 33.2267 53.2516 33.6133 52.5316 33.84ZM47.4116 32.8H49.9716C50.6382 32.8 51.1516 32.6533 51.5116 32.36C51.8716 32.0533 52.0516 31.62 52.0516 31.06C52.0516 30.5 51.8716 30.0667 51.5116 29.76C51.1516 29.4533 50.6382 29.3 49.9716 29.3H47.4116V32.8ZM50.2316 38.72C50.9116 38.72 51.4382 38.56 51.8116 38.24C52.1982 37.92 52.3916 37.4667 52.3916 36.88C52.3916 36.28 52.1916 35.8133 51.7916 35.48C51.3916 35.1333 50.8516 34.96 50.1716 34.96H47.4116V38.72H50.2316ZM67.5231 31.36C67.5231 32.1067 67.3431 32.8067 66.9831 33.46C66.6365 34.1133 66.0831 34.64 65.3231 35.04C64.5765 35.44 63.6298 35.64 62.4831 35.64H60.1431V41H57.3431V27.04H62.4831C63.5631 27.04 64.4831 27.2267 65.2431 27.6C66.0031 27.9733 66.5698 28.4867 66.9431 29.14C67.3298 29.7933 67.5231 30.5333 67.5231 31.36ZM62.3631 33.38C63.1365 33.38 63.7098 33.2067 64.0831 32.86C64.4565 32.5 64.6431 32 64.6431 31.36C64.6431 30 63.8831 29.32 62.3631 29.32H60.1431V33.38H62.3631ZM76.8911 22.06L71.4911 44.62H68.7511L74.1511 22.06H76.8911ZM87.1377 27.04V36.84C87.1377 38.2 86.7443 39.26 85.9577 40.02C85.171 40.7667 84.1177 41.14 82.7977 41.14C81.4643 41.14 80.3843 40.7533 79.5577 39.98C78.7443 39.2067 78.3377 38.1267 78.3377 36.74H81.1377C81.151 37.34 81.291 37.8067 81.5577 38.14C81.8377 38.4733 82.2377 38.64 82.7577 38.64C83.2643 38.64 83.651 38.48 83.9177 38.16C84.1843 37.84 84.3177 37.4 84.3177 36.84V27.04H87.1377ZM100.464 31.36C100.464 32.1067 100.284 32.8067 99.9239 33.46C99.5772 34.1133 99.0239 34.64 98.2639 35.04C97.5172 35.44 96.5706 35.64 95.4239 35.64H93.0839V41H90.2839V27.04H95.4239C96.5039 27.04 97.4239 27.2267 98.1839 27.6C98.9439 27.9733 99.5106 28.4867 99.8839 29.14C100.271 29.7933 100.464 30.5333 100.464 31.36ZM95.3039 33.38C96.0772 33.38 96.6506 33.2067 97.0239 32.86C97.3972 32.5 97.5839 32 97.5839 31.36C97.5839 30 96.8239 29.32 95.3039 29.32H93.0839V33.38H95.3039ZM113.432 27.04L108.712 36.14V41H105.912V36.14L101.172 27.04H104.332L107.332 33.42L110.312 27.04H113.432Z" fill="white"/>
<path d="M145.108 38.091C144.441 38.091 143.843 37.9827 143.314 37.766C142.785 37.5493 142.361 37.2287 142.04 36.804C141.728 36.3793 141.563 35.868 141.546 35.27H143.912C143.947 35.608 144.064 35.868 144.263 36.05C144.462 36.2233 144.722 36.31 145.043 36.31C145.372 36.31 145.632 36.2363 145.823 36.089C146.014 35.933 146.109 35.7207 146.109 35.452C146.109 35.2267 146.031 35.0403 145.875 34.893C145.728 34.7457 145.541 34.6243 145.316 34.529C145.099 34.4337 144.787 34.3253 144.38 34.204C143.791 34.022 143.31 33.84 142.937 33.658C142.564 33.476 142.244 33.2073 141.975 32.852C141.706 32.4967 141.572 32.033 141.572 31.461C141.572 30.6117 141.88 29.9487 142.495 29.472C143.11 28.9867 143.912 28.744 144.9 28.744C145.905 28.744 146.716 28.9867 147.331 29.472C147.946 29.9487 148.276 30.616 148.319 31.474H145.914C145.897 31.1793 145.788 30.9497 145.589 30.785C145.39 30.6117 145.134 30.525 144.822 30.525C144.553 30.525 144.337 30.5987 144.172 30.746C144.007 30.8847 143.925 31.0883 143.925 31.357C143.925 31.6517 144.064 31.8813 144.341 32.046C144.618 32.2107 145.052 32.3883 145.641 32.579C146.23 32.7783 146.707 32.969 147.071 33.151C147.444 33.333 147.764 33.5973 148.033 33.944C148.302 34.2907 148.436 34.737 148.436 35.283C148.436 35.803 148.302 36.2753 148.033 36.7C147.773 37.1247 147.392 37.4627 146.889 37.714C146.386 37.9653 145.793 38.091 145.108 38.091ZM151.949 30.655V32.501H154.926V34.217H151.949V36.219H155.316V38H149.726V28.874H155.316V30.655H151.949ZM158.904 36.284H161.816V38H156.681V28.874H158.904V36.284ZM165.022 36.284H167.934V38H162.799V28.874H165.022V36.284Z" fill="white"/>
<path d="M344.599 35.985C345.431 35.2657 346.085 34.6763 346.562 34.217C347.047 33.749 347.45 33.2637 347.771 32.761C348.092 32.2583 348.252 31.7557 348.252 31.253C348.252 30.733 348.126 30.3257 347.875 30.031C347.632 29.7363 347.247 29.589 346.718 29.589C346.207 29.589 345.808 29.7537 345.522 30.083C345.245 30.4037 345.097 30.837 345.08 31.383H343.65C343.676 30.395 343.971 29.641 344.534 29.121C345.106 28.5923 345.83 28.328 346.705 28.328C347.65 28.328 348.386 28.588 348.915 29.108C349.452 29.628 349.721 30.3213 349.721 31.188C349.721 31.812 349.561 32.4143 349.24 32.995C348.928 33.567 348.551 34.0827 348.109 34.542C347.676 34.9927 347.121 35.517 346.445 36.115L345.86 36.635H349.981V37.87H343.663V36.791L344.599 35.985ZM355.105 30.72C355.651 30.72 356.136 30.837 356.561 31.071C356.994 31.305 357.332 31.6517 357.575 32.111C357.826 32.5703 357.952 33.125 357.952 33.775V38H356.483V33.996C356.483 33.3547 356.323 32.865 356.002 32.527C355.681 32.1803 355.244 32.007 354.689 32.007C354.134 32.007 353.692 32.1803 353.363 32.527C353.042 32.865 352.882 33.3547 352.882 33.996V38H351.4V28.38H352.882V31.669C353.133 31.3657 353.45 31.1317 353.831 30.967C354.221 30.8023 354.646 30.72 355.105 30.72ZM362.569 34.386C362.569 33.6667 362.717 33.0297 363.011 32.475C363.315 31.9203 363.722 31.4913 364.233 31.188C364.753 30.876 365.325 30.72 365.949 30.72C366.513 30.72 367.002 30.8327 367.418 31.058C367.843 31.2747 368.181 31.5477 368.432 31.877V30.837H369.927V38H368.432V36.934C368.181 37.272 367.839 37.5537 367.405 37.779C366.972 38.0043 366.478 38.117 365.923 38.117C365.308 38.117 364.745 37.961 364.233 37.649C363.722 37.3283 363.315 36.8863 363.011 36.323C362.717 35.751 362.569 35.1053 362.569 34.386ZM368.432 34.412C368.432 33.918 368.328 33.489 368.12 33.125C367.921 32.761 367.657 32.4837 367.327 32.293C366.998 32.1023 366.643 32.007 366.261 32.007C365.88 32.007 365.525 32.1023 365.195 32.293C364.866 32.475 364.597 32.748 364.389 33.112C364.19 33.4673 364.09 33.892 364.09 34.386C364.09 34.88 364.19 35.3133 364.389 35.686C364.597 36.0587 364.866 36.3447 365.195 36.544C365.533 36.7347 365.889 36.83 366.261 36.83C366.643 36.83 366.998 36.7347 367.327 36.544C367.657 36.3533 367.921 36.076 368.12 35.712C368.328 35.3393 368.432 34.906 368.432 34.412ZM374.682 30.72C375.236 30.72 375.726 30.8327 376.151 31.058C376.584 31.2747 376.922 31.5477 377.165 31.877V30.837H378.66V38.117C378.66 38.7757 378.521 39.3607 378.244 39.872C377.966 40.392 377.563 40.7993 377.035 41.094C376.515 41.3887 375.891 41.536 375.163 41.536C374.192 41.536 373.386 41.3063 372.745 40.847C372.103 40.3963 371.739 39.781 371.653 39.001H373.122C373.234 39.3737 373.473 39.6727 373.837 39.898C374.209 40.132 374.651 40.249 375.163 40.249C375.761 40.249 376.242 40.067 376.606 39.703C376.978 39.339 377.165 38.8103 377.165 38.117V36.921C376.913 37.259 376.571 37.545 376.138 37.779C375.713 38.0043 375.228 38.117 374.682 38.117C374.058 38.117 373.486 37.961 372.966 37.649C372.454 37.3283 372.047 36.8863 371.744 36.323C371.449 35.751 371.302 35.1053 371.302 34.386C371.302 33.6667 371.449 33.0297 371.744 32.475C372.047 31.9203 372.454 31.4913 372.966 31.188C373.486 30.876 374.058 30.72 374.682 30.72ZM377.165 34.412C377.165 33.918 377.061 33.489 376.853 33.125C376.653 32.761 376.389 32.4837 376.06 32.293C375.73 32.1023 375.375 32.007 374.994 32.007C374.612 32.007 374.257 32.1023 373.928 32.293C373.598 32.475 373.33 32.748 373.122 33.112C372.922 33.4673 372.823 33.892 372.823 34.386C372.823 34.88 372.922 35.3133 373.122 35.686C373.33 36.0587 373.598 36.3447 373.928 36.544C374.266 36.7347 374.621 36.83 374.994 36.83C375.375 36.83 375.73 36.7347 376.06 36.544C376.389 36.3533 376.653 36.076 376.853 35.712C377.061 35.3393 377.165 34.906 377.165 34.412ZM383.635 38.117C382.959 38.117 382.348 37.9653 381.802 37.662C381.256 37.35 380.827 36.9167 380.515 36.362C380.203 35.7987 380.047 35.1487 380.047 34.412C380.047 33.684 380.208 33.0383 380.528 32.475C380.849 31.9117 381.287 31.4783 381.841 31.175C382.396 30.8717 383.016 30.72 383.7 30.72C384.385 30.72 385.005 30.8717 385.559 31.175C386.114 31.4783 386.552 31.9117 386.872 32.475C387.193 33.0383 387.353 33.684 387.353 34.412C387.353 35.14 387.189 35.7857 386.859 36.349C386.53 36.9123 386.079 37.35 385.507 37.662C384.944 37.9653 384.32 38.117 383.635 38.117ZM383.635 36.83C384.017 36.83 384.372 36.739 384.701 36.557C385.039 36.375 385.312 36.102 385.52 35.738C385.728 35.374 385.832 34.932 385.832 34.412C385.832 33.892 385.733 33.4543 385.533 33.099C385.334 32.735 385.07 32.462 384.74 32.28C384.411 32.098 384.056 32.007 383.674 32.007C383.293 32.007 382.938 32.098 382.608 32.28C382.288 32.462 382.032 32.735 381.841 33.099C381.651 33.4543 381.555 33.892 381.555 34.412C381.555 35.1833 381.75 35.7813 382.14 36.206C382.539 36.622 383.037 36.83 383.635 36.83Z" fill="white"/>
<path d="M30.016 95.524V98.32H33.064V99.22H30.016V102.1H33.424V103H28.924V94.624H33.424V95.524H30.016ZM38.2083 96.304C39.0083 96.304 39.6563 96.548 40.1523 97.036C40.6483 97.516 40.8963 98.212 40.8963 99.124V103H39.8163V99.28C39.8163 98.624 39.6523 98.124 39.3243 97.78C38.9963 97.428 38.5483 97.252 37.9803 97.252C37.4043 97.252 36.9443 97.432 36.6003 97.792C36.2643 98.152 36.0963 98.676 36.0963 99.364V103H35.0043V96.424H36.0963V97.36C36.3123 97.024 36.6043 96.764 36.9723 96.58C37.3483 96.396 37.7603 96.304 38.2083 96.304ZM43.9401 97.324V101.2C43.9401 101.52 44.0081 101.748 44.1441 101.884C44.2801 102.012 44.5161 102.076 44.8521 102.076H45.6561V103H44.6721C44.0641 103 43.6081 102.86 43.3041 102.58C43.0001 102.3 42.8481 101.84 42.8481 101.2V97.324H41.9961V96.424H42.8481V94.768H43.9401V96.424H45.6561V97.324H43.9401ZM47.9992 97.492C48.1912 97.116 48.4632 96.824 48.8152 96.616C49.1752 96.408 49.6112 96.304 50.1232 96.304V97.432H49.8352C48.6112 97.432 47.9992 98.096 47.9992 99.424V103H46.9072V96.424H47.9992V97.492ZM56.9758 96.424L53.0158 106.096H51.8878L53.1838 102.928L50.5318 96.424H51.7438L53.8078 101.752L55.8478 96.424H56.9758Z" fill="black" fill-opacity="0.5"/>
<path d="M34.072 159.636V160.524H31.792V168H30.7V160.524H28.408V159.636H34.072ZM34.9362 164.688C34.9362 164.016 35.0722 163.428 35.3442 162.924C35.6162 162.412 35.9882 162.016 36.4602 161.736C36.9402 161.456 37.4722 161.316 38.0562 161.316C38.6322 161.316 39.1322 161.44 39.5562 161.688C39.9802 161.936 40.2962 162.248 40.5042 162.624V161.424H41.6082V168H40.5042V166.776C40.2882 167.16 39.9642 167.48 39.5322 167.736C39.1082 167.984 38.6122 168.108 38.0442 168.108C37.4602 168.108 36.9322 167.964 36.4602 167.676C35.9882 167.388 35.6162 166.984 35.3442 166.464C35.0722 165.944 34.9362 165.352 34.9362 164.688ZM40.5042 164.7C40.5042 164.204 40.4042 163.772 40.2042 163.404C40.0042 163.036 39.7322 162.756 39.3882 162.564C39.0522 162.364 38.6802 162.264 38.2722 162.264C37.8642 162.264 37.4922 162.36 37.1562 162.552C36.8202 162.744 36.5522 163.024 36.3522 163.392C36.1522 163.76 36.0522 164.192 36.0522 164.688C36.0522 165.192 36.1522 165.632 36.3522 166.008C36.5522 166.376 36.8202 166.66 37.1562 166.86C37.4922 167.052 37.8642 167.148 38.2722 167.148C38.6802 167.148 39.0522 167.052 39.3882 166.86C39.7322 166.66 40.0042 166.376 40.2042 166.008C40.4042 165.632 40.5042 165.196 40.5042 164.7ZM47.0536 168L44.4736 165.096V168H43.3816V159.12H44.4736V164.34L47.0056 161.424H48.5296L45.4336 164.7L48.5416 168H47.0536ZM55.4853 164.46C55.4853 164.668 55.4733 164.888 55.4493 165.12H50.1933C50.2333 165.768 50.4533 166.276 50.8533 166.644C51.2613 167.004 51.7533 167.184 52.3293 167.184C52.8013 167.184 53.1933 167.076 53.5053 166.86C53.8253 166.636 54.0493 166.34 54.1773 165.972H55.3533C55.1773 166.604 54.8253 167.12 54.2973 167.52C53.7693 167.912 53.1133 168.108 52.3293 168.108C51.7053 168.108 51.1453 167.968 50.6493 167.688C50.1613 167.408 49.7773 167.012 49.4973 166.5C49.2173 165.98 49.0773 165.38 49.0773 164.7C49.0773 164.02 49.2133 163.424 49.4853 162.912C49.7573 162.4 50.1373 162.008 50.6253 161.736C51.1213 161.456 51.6893 161.316 52.3293 161.316C52.9533 161.316 53.5053 161.452 53.9853 161.724C54.4653 161.996 54.8333 162.372 55.0893 162.852C55.3533 163.324 55.4853 163.86 55.4853 164.46ZM54.3573 164.232C54.3573 163.816 54.2653 163.46 54.0813 163.164C53.8973 162.86 53.6453 162.632 53.3253 162.48C53.0133 162.32 52.6653 162.24 52.2813 162.24C51.7293 162.24 51.2573 162.416 50.8653 162.768C50.4813 163.12 50.2613 163.608 50.2053 164.232H54.3573ZM65.574 162.084C65.574 162.78 65.334 163.36 64.854 163.824C64.382 164.28 63.658 164.508 62.682 164.508H61.074V168H59.982V159.636H62.682C63.626 159.636 64.342 159.864 64.83 160.32C65.326 160.776 65.574 161.364 65.574 162.084ZM62.682 163.608C63.29 163.608 63.738 163.476 64.026 163.212C64.314 162.948 64.458 162.572 64.458 162.084C64.458 161.052 63.866 160.536 62.682 160.536H61.074V163.608H62.682ZM67.9512 162.492C68.1432 162.116 68.4152 161.824 68.7672 161.616C69.1272 161.408 69.5632 161.304 70.0752 161.304V162.432H69.7872C68.5632 162.432 67.9512 163.096 67.9512 164.424V168H66.8592V161.424H67.9512V162.492ZM74.1317 168.108C73.5157 168.108 72.9557 167.968 72.4517 167.688C71.9557 167.408 71.5637 167.012 71.2757 166.5C70.9957 165.98 70.8557 165.38 70.8557 164.7C70.8557 164.028 70.9997 163.436 71.2877 162.924C71.5837 162.404 71.9837 162.008 72.4877 161.736C72.9917 161.456 73.5557 161.316 74.1797 161.316C74.8037 161.316 75.3677 161.456 75.8717 161.736C76.3757 162.008 76.7717 162.4 77.0597 162.912C77.3557 163.424 77.5037 164.02 77.5037 164.7C77.5037 165.38 77.3517 165.98 77.0477 166.5C76.7517 167.012 76.3477 167.408 75.8357 167.688C75.3237 167.968 74.7557 168.108 74.1317 168.108ZM74.1317 167.148C74.5237 167.148 74.8917 167.056 75.2357 166.872C75.5797 166.688 75.8557 166.412 76.0637 166.044C76.2797 165.676 76.3877 165.228 76.3877 164.7C76.3877 164.172 76.2837 163.724 76.0757 163.356C75.8677 162.988 75.5957 162.716 75.2597 162.54C74.9237 162.356 74.5597 162.264 74.1677 162.264C73.7677 162.264 73.3997 162.356 73.0637 162.54C72.7357 162.716 72.4717 162.988 72.2717 163.356C72.0717 163.724 71.9717 164.172 71.9717 164.7C71.9717 165.236 72.0677 165.688 72.2597 166.056C72.4597 166.424 72.7237 166.7 73.0517 166.884C73.3797 167.06 73.7397 167.148 74.1317 167.148ZM81.5435 162.324H80.1635V168H79.0715V162.324H78.2195V161.424H79.0715V160.956C79.0715 160.22 79.2595 159.684 79.6355 159.348C80.0195 159.004 80.6315 158.832 81.4715 158.832V159.744C80.9915 159.744 80.6515 159.84 80.4515 160.032C80.2595 160.216 80.1635 160.524 80.1635 160.956V161.424H81.5435V162.324ZM83.3088 160.356C83.1008 160.356 82.9248 160.284 82.7808 160.14C82.6368 159.996 82.5648 159.82 82.5648 159.612C82.5648 159.404 82.6368 159.228 82.7808 159.084C82.9248 158.94 83.1008 158.868 83.3088 158.868C83.5088 158.868 83.6768 158.94 83.8128 159.084C83.9568 159.228 84.0288 159.404 84.0288 159.612C84.0288 159.82 83.9568 159.996 83.8128 160.14C83.6768 160.284 83.5088 160.356 83.3088 160.356ZM83.8368 161.424V168H82.7448V161.424H83.8368ZM86.9579 162.324V166.2C86.9579 166.52 87.0259 166.748 87.1619 166.884C87.2979 167.012 87.5339 167.076 87.8699 167.076H88.6739V168H87.6899C87.0819 168 86.6259 167.86 86.3219 167.58C86.0179 167.3 85.8659 166.84 85.8659 166.2V162.324H85.0139V161.424H85.8659V159.768H86.9579V161.424H88.6739V162.324H86.9579Z" fill="black" fill-opacity="0.5"/>
<path d="M49.357 248.985H45.405L44.677 251H43.429L46.705 241.991H48.07L51.333 251H50.085L49.357 248.985ZM49.019 248.023L47.381 243.447L45.743 248.023H49.019ZM52.2408 247.425C52.2408 246.688 52.3881 246.047 52.6828 245.501C52.9774 244.946 53.3848 244.517 53.9048 244.214C54.4334 243.911 55.0358 243.759 55.7118 243.759C56.5871 243.759 57.3064 243.971 57.8698 244.396C58.4418 244.821 58.8188 245.41 59.0008 246.164H57.7268C57.6054 245.731 57.3671 245.388 57.0118 245.137C56.6651 244.886 56.2318 244.76 55.7118 244.76C55.0358 244.76 54.4898 244.994 54.0738 245.462C53.6578 245.921 53.4498 246.576 53.4498 247.425C53.4498 248.283 53.6578 248.946 54.0738 249.414C54.4898 249.882 55.0358 250.116 55.7118 250.116C56.2318 250.116 56.6651 249.995 57.0118 249.752C57.3584 249.509 57.5968 249.163 57.7268 248.712H59.0008C58.8101 249.44 58.4288 250.025 57.8568 250.467C57.2848 250.9 56.5698 251.117 55.7118 251.117C55.0358 251.117 54.4334 250.965 53.9048 250.662C53.3848 250.359 52.9774 249.93 52.6828 249.375C52.3881 248.82 52.2408 248.17 52.2408 247.425ZM61.9442 244.851V249.05C61.9442 249.397 62.0179 249.644 62.1653 249.791C62.3126 249.93 62.5683 249.999 62.9322 249.999H63.8033V251H62.7373C62.0786 251 61.5846 250.848 61.2552 250.545C60.9259 250.242 60.7612 249.743 60.7612 249.05V244.851H59.8382V243.876H60.7612V242.082H61.9442V243.876H63.8033V244.851H61.9442ZM65.7696 242.719C65.5443 242.719 65.3536 242.641 65.1976 242.485C65.0416 242.329 64.9636 242.138 64.9636 241.913C64.9636 241.688 65.0416 241.497 65.1976 241.341C65.3536 241.185 65.5443 241.107 65.7696 241.107C65.9863 241.107 66.1683 241.185 66.3156 241.341C66.4716 241.497 66.5496 241.688 66.5496 241.913C66.5496 242.138 66.4716 242.329 66.3156 242.485C66.1683 242.641 65.9863 242.719 65.7696 242.719ZM66.3416 243.876V251H65.1586V243.876H66.3416ZM70.9318 249.908L73.1418 243.876H74.4028L71.6078 251H70.2298L67.4348 243.876H68.7088L70.9318 249.908ZM81.9889 247.165C81.9889 247.39 81.9759 247.629 81.9499 247.88H76.2559C76.2993 248.582 76.5376 249.132 76.9709 249.531C77.4129 249.921 77.9459 250.116 78.5699 250.116C79.0813 250.116 79.5059 249.999 79.8439 249.765C80.1906 249.522 80.4333 249.202 80.5719 248.803H81.8459C81.6553 249.488 81.2739 250.047 80.7019 250.48C80.1299 250.905 79.4193 251.117 78.5699 251.117C77.8939 251.117 77.2873 250.965 76.7499 250.662C76.2213 250.359 75.8053 249.93 75.5019 249.375C75.1986 248.812 75.0469 248.162 75.0469 247.425C75.0469 246.688 75.1943 246.043 75.4889 245.488C75.7836 244.933 76.1953 244.509 76.7239 244.214C77.2613 243.911 77.8766 243.759 78.5699 243.759C79.2459 243.759 79.8439 243.906 80.3639 244.201C80.8839 244.496 81.2826 244.903 81.5599 245.423C81.8459 245.934 81.9889 246.515 81.9889 247.165ZM80.7669 246.918C80.7669 246.467 80.6673 246.082 80.4679 245.761C80.2686 245.432 79.9956 245.185 79.6489 245.02C79.3109 244.847 78.9339 244.76 78.5179 244.76C77.9199 244.76 77.4086 244.951 76.9839 245.332C76.5679 245.713 76.3296 246.242 76.2689 246.918H80.7669Z" fill="black"/>
<path d="M217.516 98.812C217.516 97.996 217.7 97.264 218.068 96.616C218.436 95.96 218.936 95.448 219.568 95.08C220.208 94.712 220.916 94.528 221.692 94.528C222.604 94.528 223.4 94.748 224.08 95.188C224.76 95.628 225.256 96.252 225.568 97.06H224.26C224.028 96.556 223.692 96.168 223.252 95.896C222.82 95.624 222.3 95.488 221.692 95.488C221.108 95.488 220.584 95.624 220.12 95.896C219.656 96.168 219.292 96.556 219.028 97.06C218.764 97.556 218.632 98.14 218.632 98.812C218.632 99.476 218.764 100.06 219.028 100.564C219.292 101.06 219.656 101.444 220.12 101.716C220.584 101.988 221.108 102.124 221.692 102.124C222.3 102.124 222.82 101.992 223.252 101.728C223.692 101.456 224.028 101.068 224.26 100.564H225.568C225.256 101.364 224.76 101.984 224.08 102.424C223.4 102.856 222.604 103.072 221.692 103.072C220.916 103.072 220.208 102.892 219.568 102.532C218.936 102.164 218.436 101.656 218.068 101.008C217.7 100.36 217.516 99.628 217.516 98.812ZM232.954 96.424V103H231.862V102.028C231.654 102.364 231.362 102.628 230.986 102.82C230.618 103.004 230.21 103.096 229.762 103.096C229.25 103.096 228.79 102.992 228.382 102.784C227.974 102.568 227.65 102.248 227.41 101.824C227.178 101.4 227.062 100.884 227.062 100.276V96.424H228.142V100.132C228.142 100.78 228.306 101.28 228.634 101.632C228.962 101.976 229.41 102.148 229.978 102.148C230.562 102.148 231.022 101.968 231.358 101.608C231.694 101.248 231.862 100.724 231.862 100.036V96.424H232.954ZM235.817 97.492C236.009 97.116 236.281 96.824 236.633 96.616C236.993 96.408 237.429 96.304 237.941 96.304V97.432H237.653C236.429 97.432 235.817 98.096 235.817 99.424V103H234.725V96.424H235.817V97.492ZM240.222 97.492C240.414 97.116 240.686 96.824 241.038 96.616C241.398 96.408 241.834 96.304 242.346 96.304V97.432H242.058C240.834 97.432 240.222 98.096 240.222 99.424V103H239.13V96.424H240.222V97.492ZM249.534 99.46C249.534 99.668 249.522 99.888 249.498 100.12H244.242C244.282 100.768 244.502 101.276 244.902 101.644C245.31 102.004 245.802 102.184 246.378 102.184C246.85 102.184 247.242 102.076 247.554 101.86C247.874 101.636 248.098 101.34 248.226 100.972H249.402C249.226 101.604 248.874 102.12 248.346 102.52C247.818 102.912 247.162 103.108 246.378 103.108C245.754 103.108 245.194 102.968 244.698 102.688C244.21 102.408 243.826 102.012 243.546 101.5C243.266 100.98 243.126 100.38 243.126 99.7C243.126 99.02 243.262 98.424 243.534 97.912C243.806 97.4 244.186 97.008 244.674 96.736C245.17 96.456 245.738 96.316 246.378 96.316C247.002 96.316 247.554 96.452 248.034 96.724C248.514 96.996 248.882 97.372 249.138 97.852C249.402 98.324 249.534 98.86 249.534 99.46ZM248.406 99.232C248.406 98.816 248.314 98.46 248.13 98.164C247.946 97.86 247.694 97.632 247.374 97.48C247.062 97.32 246.714 97.24 246.33 97.24C245.778 97.24 245.306 97.416 244.914 97.768C244.53 98.12 244.31 98.608 244.254 99.232H248.406ZM254.108 96.304C254.908 96.304 255.556 96.548 256.052 97.036C256.548 97.516 256.796 98.212 256.796 99.124V103H255.716V99.28C255.716 98.624 255.552 98.124 255.224 97.78C254.896 97.428 254.448 97.252 253.88 97.252C253.304 97.252 252.844 97.432 252.5 97.792C252.164 98.152 251.996 98.676 251.996 99.364V103H250.904V96.424H251.996V97.36C252.212 97.024 252.504 96.764 252.872 96.58C253.248 96.396 253.66 96.304 254.108 96.304ZM259.84 97.324V101.2C259.84 101.52 259.908 101.748 260.044 101.884C260.18 102.012 260.416 102.076 260.752 102.076H261.556V103H260.572C259.964 103 259.508 102.86 259.204 102.58C258.9 102.3 258.748 101.84 258.748 101.2V97.324H257.896V96.424H258.748V94.768H259.84V96.424H261.556V97.324H259.84Z" fill="black" fill-opacity="0.5"/>
<path d="M220.576 168.084C220.024 168.084 219.528 167.988 219.088 167.796C218.656 167.596 218.316 167.324 218.068 166.98C217.82 166.628 217.692 166.224 217.684 165.768H218.848C218.888 166.16 219.048 166.492 219.328 166.764C219.616 167.028 220.032 167.16 220.576 167.16C221.096 167.16 221.504 167.032 221.8 166.776C222.104 166.512 222.256 166.176 222.256 165.768C222.256 165.448 222.168 165.188 221.992 164.988C221.816 164.788 221.596 164.636 221.332 164.532C221.068 164.428 220.712 164.316 220.264 164.196C219.712 164.052 219.268 163.908 218.932 163.764C218.604 163.62 218.32 163.396 218.08 163.092C217.848 162.78 217.732 162.364 217.732 161.844C217.732 161.388 217.848 160.984 218.08 160.632C218.312 160.28 218.636 160.008 219.052 159.816C219.476 159.624 219.96 159.528 220.504 159.528C221.288 159.528 221.928 159.724 222.424 160.116C222.928 160.508 223.212 161.028 223.276 161.676H222.076C222.036 161.356 221.868 161.076 221.572 160.836C221.276 160.588 220.884 160.464 220.396 160.464C219.94 160.464 219.568 160.584 219.28 160.824C218.992 161.056 218.848 161.384 218.848 161.808C218.848 162.112 218.932 162.36 219.1 162.552C219.276 162.744 219.488 162.892 219.736 162.996C219.992 163.092 220.348 163.204 220.804 163.332C221.356 163.484 221.8 163.636 222.136 163.788C222.472 163.932 222.76 164.16 223 164.472C223.24 164.776 223.36 165.192 223.36 165.72C223.36 166.128 223.252 166.512 223.036 166.872C222.82 167.232 222.5 167.524 222.076 167.748C221.652 167.972 221.152 168.084 220.576 168.084ZM226.227 162.324V166.2C226.227 166.52 226.295 166.748 226.431 166.884C226.567 167.012 226.803 167.076 227.139 167.076H227.943V168H226.959C226.351 168 225.895 167.86 225.591 167.58C225.287 167.3 225.135 166.84 225.135 166.2V162.324H224.283V161.424H225.135V159.768H226.227V161.424H227.943V162.324H226.227ZM232.062 168.108C231.446 168.108 230.886 167.968 230.382 167.688C229.886 167.408 229.494 167.012 229.206 166.5C228.926 165.98 228.786 165.38 228.786 164.7C228.786 164.028 228.93 163.436 229.218 162.924C229.514 162.404 229.914 162.008 230.418 161.736C230.922 161.456 231.486 161.316 232.11 161.316C232.734 161.316 233.298 161.456 233.802 161.736C234.306 162.008 234.702 162.4 234.99 162.912C235.286 163.424 235.434 164.02 235.434 164.7C235.434 165.38 235.282 165.98 234.978 166.5C234.682 167.012 234.278 167.408 233.766 167.688C233.254 167.968 232.686 168.108 232.062 168.108ZM232.062 167.148C232.454 167.148 232.822 167.056 233.166 166.872C233.51 166.688 233.786 166.412 233.994 166.044C234.21 165.676 234.318 165.228 234.318 164.7C234.318 164.172 234.214 163.724 234.006 163.356C233.798 162.988 233.526 162.716 233.19 162.54C232.854 162.356 232.49 162.264 232.098 162.264C231.698 162.264 231.33 162.356 230.994 162.54C230.666 162.716 230.402 162.988 230.202 163.356C230.002 163.724 229.902 164.172 229.902 164.7C229.902 165.236 229.998 165.688 230.19 166.056C230.39 166.424 230.654 166.7 230.982 166.884C231.31 167.06 231.67 167.148 232.062 167.148ZM237.89 162.636C238.106 162.26 238.426 161.948 238.85 161.7C239.282 161.444 239.782 161.316 240.35 161.316C240.934 161.316 241.462 161.456 241.934 161.736C242.414 162.016 242.79 162.412 243.062 162.924C243.334 163.428 243.47 164.016 243.47 164.688C243.47 165.352 243.334 165.944 243.062 166.464C242.79 166.984 242.414 167.388 241.934 167.676C241.462 167.964 240.934 168.108 240.35 168.108C239.79 168.108 239.294 167.984 238.862 167.736C238.438 167.48 238.114 167.164 237.89 166.788V171.12H236.798V161.424H237.89V162.636ZM242.354 164.688C242.354 164.192 242.254 163.76 242.054 163.392C241.854 163.024 241.582 162.744 241.238 162.552C240.902 162.36 240.53 162.264 240.122 162.264C239.722 162.264 239.35 162.364 239.006 162.564C238.67 162.756 238.398 163.04 238.19 163.416C237.99 163.784 237.89 164.212 237.89 164.7C237.89 165.196 237.99 165.632 238.19 166.008C238.398 166.376 238.67 166.66 239.006 166.86C239.35 167.052 239.722 167.148 240.122 167.148C240.53 167.148 240.902 167.052 241.238 166.86C241.582 166.66 241.854 166.376 242.054 166.008C242.254 165.632 242.354 165.192 242.354 164.688ZM249.054 167.112H251.982V168H247.962V159.636H249.054V167.112ZM255.938 168.108C255.322 168.108 254.762 167.968 254.258 167.688C253.762 167.408 253.37 167.012 253.082 166.5C252.802 165.98 252.662 165.38 252.662 164.7C252.662 164.028 252.806 163.436 253.094 162.924C253.39 162.404 253.79 162.008 254.294 161.736C254.798 161.456 255.362 161.316 255.986 161.316C256.61 161.316 257.174 161.456 257.678 161.736C258.182 162.008 258.578 162.4 258.866 162.912C259.162 163.424 259.31 164.02 259.31 164.7C259.31 165.38 259.158 165.98 258.854 166.5C258.558 167.012 258.154 167.408 257.642 167.688C257.13 167.968 256.562 168.108 255.938 168.108ZM255.938 167.148C256.33 167.148 256.698 167.056 257.042 166.872C257.386 166.688 257.662 166.412 257.87 166.044C258.086 165.676 258.194 165.228 258.194 164.7C258.194 164.172 258.09 163.724 257.882 163.356C257.674 162.988 257.402 162.716 257.066 162.54C256.73 162.356 256.366 162.264 255.974 162.264C255.574 162.264 255.206 162.356 254.87 162.54C254.542 162.716 254.278 162.988 254.078 163.356C253.878 163.724 253.778 164.172 253.778 164.7C253.778 165.236 253.874 165.688 254.066 166.056C254.266 166.424 254.53 166.7 254.858 166.884C255.186 167.06 255.546 167.148 255.938 167.148ZM263.002 168.108C262.498 168.108 262.046 168.024 261.646 167.856C261.246 167.68 260.93 167.44 260.698 167.136C260.466 166.824 260.338 166.468 260.314 166.068H261.442C261.474 166.396 261.626 166.664 261.898 166.872C262.178 167.08 262.542 167.184 262.99 167.184C263.406 167.184 263.734 167.092 263.974 166.908C264.214 166.724 264.334 166.492 264.334 166.212C264.334 165.924 264.206 165.712 263.95 165.576C263.694 165.432 263.298 165.292 262.762 165.156C262.274 165.028 261.874 164.9 261.562 164.772C261.258 164.636 260.994 164.44 260.77 164.184C260.554 163.92 260.446 163.576 260.446 163.152C260.446 162.816 260.546 162.508 260.746 162.228C260.946 161.948 261.23 161.728 261.598 161.568C261.966 161.4 262.386 161.316 262.858 161.316C263.586 161.316 264.174 161.5 264.622 161.868C265.07 162.236 265.31 162.74 265.342 163.38H264.25C264.226 163.036 264.086 162.76 263.83 162.552C263.582 162.344 263.246 162.24 262.822 162.24C262.43 162.24 262.118 162.324 261.886 162.492C261.654 162.66 261.538 162.88 261.538 163.152C261.538 163.368 261.606 163.548 261.742 163.692C261.886 163.828 262.062 163.94 262.27 164.028C262.486 164.108 262.782 164.2 263.158 164.304C263.63 164.432 264.014 164.56 264.31 164.688C264.606 164.808 264.858 164.992 265.066 165.24C265.282 165.488 265.394 165.812 265.402 166.212C265.402 166.572 265.302 166.896 265.102 167.184C264.902 167.472 264.618 167.7 264.25 167.868C263.89 168.028 263.474 168.108 263.002 168.108ZM269.199 168.108C268.695 168.108 268.243 168.024 267.843 167.856C267.443 167.68 267.127 167.44 266.895 167.136C266.663 166.824 266.535 166.468 266.511 166.068H267.639C267.671 166.396 267.823 166.664 268.095 166.872C268.375 167.08 268.739 167.184 269.187 167.184C269.603 167.184 269.931 167.092 270.171 166.908C270.411 166.724 270.531 166.492 270.531 166.212C270.531 165.924 270.403 165.712 270.147 165.576C269.891 165.432 269.495 165.292 268.959 165.156C268.471 165.028 268.071 164.9 267.759 164.772C267.455 164.636 267.191 164.44 266.967 164.184C266.751 163.92 266.643 163.576 266.643 163.152C266.643 162.816 266.743 162.508 266.943 162.228C267.143 161.948 267.427 161.728 267.795 161.568C268.163 161.4 268.583 161.316 269.055 161.316C269.783 161.316 270.371 161.5 270.819 161.868C271.267 162.236 271.507 162.74 271.539 163.38H270.447C270.423 163.036 270.283 162.76 270.027 162.552C269.779 162.344 269.443 162.24 269.019 162.24C268.627 162.24 268.315 162.324 268.083 162.492C267.851 162.66 267.735 162.88 267.735 163.152C267.735 163.368 267.803 163.548 267.939 163.692C268.083 163.828 268.259 163.94 268.467 164.028C268.683 164.108 268.979 164.2 269.355 164.304C269.827 164.432 270.211 164.56 270.507 164.688C270.803 164.808 271.055 164.992 271.263 165.24C271.479 165.488 271.591 165.812 271.599 166.212C271.599 166.572 271.499 166.896 271.299 167.184C271.099 167.472 270.815 167.7 270.447 167.868C270.087 168.028 269.671 168.108 269.199 168.108Z" fill="black" fill-opacity="0.5"/>
<path d="M28.9 118.5V116.42H33.06V131H30.76V118.5H28.9ZM37.2922 131.14C36.8789 131.14 36.5322 131 36.2522 130.72C35.9722 130.44 35.8322 130.093 35.8322 129.68C35.8322 129.267 35.9722 128.92 36.2522 128.64C36.5322 128.36 36.8789 128.22 37.2922 128.22C37.6922 128.22 38.0322 128.36 38.3122 128.64C38.5922 128.92 38.7322 129.267 38.7322 129.68C38.7322 130.093 38.5922 130.44 38.3122 130.72C38.0322 131 37.6922 131.14 37.2922 131.14ZM40.7764 123.52C40.7764 121.213 41.1631 119.413 41.9364 118.12C42.7231 116.813 44.0697 116.16 45.9764 116.16C47.8831 116.16 49.2231 116.813 49.9964 118.12C50.7831 119.413 51.1764 121.213 51.1764 123.52C51.1764 125.853 50.7831 127.68 49.9964 129C49.2231 130.307 47.8831 130.96 45.9764 130.96C44.0697 130.96 42.7231 130.307 41.9364 129C41.1631 127.68 40.7764 125.853 40.7764 123.52ZM48.9364 123.52C48.9364 122.44 48.8631 121.527 48.7164 120.78C48.5831 120.033 48.3031 119.427 47.8764 118.96C47.4497 118.48 46.8164 118.24 45.9764 118.24C45.1364 118.24 44.5031 118.48 44.0764 118.96C43.6497 119.427 43.3631 120.033 43.2164 120.78C43.0831 121.527 43.0164 122.44 43.0164 123.52C43.0164 124.64 43.0831 125.58 43.2164 126.34C43.3497 127.1 43.6297 127.713 44.0564 128.18C44.4964 128.647 45.1364 128.88 45.9764 128.88C46.8164 128.88 47.4497 128.647 47.8764 128.18C48.3164 127.713 48.6031 127.1 48.7364 126.34C48.8697 125.58 48.9364 124.64 48.9364 123.52ZM55.9289 123.38C54.5422 122.687 53.8489 121.593 53.8489 120.1C53.8489 119.38 54.0289 118.72 54.3889 118.12C54.7489 117.52 55.2889 117.047 56.0089 116.7C56.7289 116.34 57.6089 116.16 58.6489 116.16C59.6756 116.16 60.5489 116.34 61.2689 116.7C62.0022 117.047 62.5489 117.52 62.9089 118.12C63.2689 118.72 63.4489 119.38 63.4489 120.1C63.4489 120.847 63.2556 121.507 62.8689 122.08C62.4956 122.64 61.9956 123.073 61.3689 123.38C62.1289 123.66 62.7289 124.12 63.1689 124.76C63.6089 125.387 63.8289 126.127 63.8289 126.98C63.8289 127.847 63.6089 128.613 63.1689 129.28C62.7289 129.947 62.1156 130.46 61.3289 130.82C60.5422 131.18 59.6489 131.36 58.6489 131.36C57.6489 131.36 56.7556 131.18 55.9689 130.82C55.1956 130.46 54.5889 129.947 54.1489 129.28C53.7089 128.613 53.4889 127.847 53.4889 126.98C53.4889 126.113 53.7089 125.367 54.1489 124.74C54.5889 124.113 55.1822 123.66 55.9289 123.38ZM61.2689 120.38C61.2689 119.633 61.0356 119.06 60.5689 118.66C60.1022 118.26 59.4622 118.06 58.6489 118.06C57.8489 118.06 57.2156 118.26 56.7489 118.66C56.2822 119.06 56.0489 119.64 56.0489 120.4C56.0489 121.067 56.2889 121.613 56.7689 122.04C57.2622 122.453 57.8889 122.66 58.6489 122.66C59.4089 122.66 60.0356 122.447 60.5289 122.02C61.0222 121.593 61.2689 121.047 61.2689 120.38ZM58.6489 124.38C57.7689 124.38 57.0489 124.6 56.4889 125.04C55.9422 125.467 55.6689 126.087 55.6689 126.9C55.6689 127.66 55.9356 128.28 56.4689 128.76C57.0022 129.227 57.7289 129.46 58.6489 129.46C59.5556 129.46 60.2689 129.22 60.7889 128.74C61.3222 128.26 61.5889 127.647 61.5889 126.9C61.5889 126.1 61.3156 125.48 60.7689 125.04C60.2356 124.6 59.5289 124.38 58.6489 124.38ZM67.3628 127.9C68.6428 126.793 69.6495 125.887 70.3828 125.18C71.1295 124.46 71.7495 123.713 72.2428 122.94C72.7361 122.167 72.9828 121.393 72.9828 120.62C72.9828 119.82 72.7895 119.193 72.4028 118.74C72.0295 118.287 71.4361 118.06 70.6228 118.06C69.8361 118.06 69.2228 118.313 68.7828 118.82C68.3561 119.313 68.1295 119.98 68.1028 120.82H65.9028C65.9428 119.3 66.3961 118.14 67.2628 117.34C68.1428 116.527 69.2561 116.12 70.6028 116.12C72.0561 116.12 73.1895 116.52 74.0028 117.32C74.8295 118.12 75.2428 119.187 75.2428 120.52C75.2428 121.48 74.9961 122.407 74.5028 123.3C74.0228 124.18 73.4428 124.973 72.7628 125.68C72.0961 126.373 71.2428 127.18 70.2028 128.1L69.3028 128.9H75.6428V130.8H65.9228V129.14L67.3628 127.9ZM86.9258 118.38H80.2258V122.36C80.5058 121.987 80.9191 121.673 81.4658 121.42C82.0258 121.167 82.6191 121.04 83.2458 121.04C84.3658 121.04 85.2724 121.28 85.9658 121.76C86.6724 122.24 87.1725 122.847 87.4658 123.58C87.7725 124.313 87.9258 125.087 87.9258 125.9C87.9258 126.887 87.7325 127.767 87.3458 128.54C86.9724 129.3 86.4058 129.9 85.6458 130.34C84.8991 130.78 83.9791 131 82.8858 131C81.4324 131 80.2658 130.64 79.3858 129.92C78.5058 129.2 77.9791 128.247 77.8058 127.06H80.0258C80.1724 127.687 80.4991 128.187 81.0058 128.56C81.5124 128.92 82.1458 129.1 82.9058 129.1C83.8524 129.1 84.5591 128.813 85.0258 128.24C85.5058 127.667 85.7458 126.907 85.7458 125.96C85.7458 125 85.5058 124.267 85.0258 123.76C84.5458 123.24 83.8391 122.98 82.9058 122.98C82.2524 122.98 81.6991 123.147 81.2458 123.48C80.8058 123.8 80.4858 124.24 80.2858 124.8H78.1258V116.38H86.9258V118.38Z" fill="black"/>
<path d="M28.9 183.5V181.42H33.06V196H30.76V183.5H28.9ZM37.2922 196.14C36.8789 196.14 36.5322 196 36.2522 195.72C35.9722 195.44 35.8322 195.093 35.8322 194.68C35.8322 194.267 35.9722 193.92 36.2522 193.64C36.5322 193.36 36.8789 193.22 37.2922 193.22C37.6922 193.22 38.0322 193.36 38.3122 193.64C38.5922 193.92 38.7322 194.267 38.7322 194.68C38.7322 195.093 38.5922 195.44 38.3122 195.72C38.0322 196 37.6922 196.14 37.2922 196.14ZM40.7764 188.52C40.7764 186.213 41.1631 184.413 41.9364 183.12C42.7231 181.813 44.0697 181.16 45.9764 181.16C47.8831 181.16 49.2231 181.813 49.9964 183.12C50.7831 184.413 51.1764 186.213 51.1764 188.52C51.1764 190.853 50.7831 192.68 49.9964 194C49.2231 195.307 47.8831 195.96 45.9764 195.96C44.0697 195.96 42.7231 195.307 41.9364 194C41.1631 192.68 40.7764 190.853 40.7764 188.52ZM48.9364 188.52C48.9364 187.44 48.8631 186.527 48.7164 185.78C48.5831 185.033 48.3031 184.427 47.8764 183.96C47.4497 183.48 46.8164 183.24 45.9764 183.24C45.1364 183.24 44.5031 183.48 44.0764 183.96C43.6497 184.427 43.3631 185.033 43.2164 185.78C43.0831 186.527 43.0164 187.44 43.0164 188.52C43.0164 189.64 43.0831 190.58 43.2164 191.34C43.3497 192.1 43.6297 192.713 44.0564 193.18C44.4964 193.647 45.1364 193.88 45.9764 193.88C46.8164 193.88 47.4497 193.647 47.8764 193.18C48.3164 192.713 48.6031 192.1 48.7364 191.34C48.8697 190.58 48.9364 189.64 48.9364 188.52ZM55.9289 188.38C54.5422 187.687 53.8489 186.593 53.8489 185.1C53.8489 184.38 54.0289 183.72 54.3889 183.12C54.7489 182.52 55.2889 182.047 56.0089 181.7C56.7289 181.34 57.6089 181.16 58.6489 181.16C59.6756 181.16 60.5489 181.34 61.2689 181.7C62.0022 182.047 62.5489 182.52 62.9089 183.12C63.2689 183.72 63.4489 184.38 63.4489 185.1C63.4489 185.847 63.2556 186.507 62.8689 187.08C62.4956 187.64 61.9956 188.073 61.3689 188.38C62.1289 188.66 62.7289 189.12 63.1689 189.76C63.6089 190.387 63.8289 191.127 63.8289 191.98C63.8289 192.847 63.6089 193.613 63.1689 194.28C62.7289 194.947 62.1156 195.46 61.3289 195.82C60.5422 196.18 59.6489 196.36 58.6489 196.36C57.6489 196.36 56.7556 196.18 55.9689 195.82C55.1956 195.46 54.5889 194.947 54.1489 194.28C53.7089 193.613 53.4889 192.847 53.4889 191.98C53.4889 191.113 53.7089 190.367 54.1489 189.74C54.5889 189.113 55.1822 188.66 55.9289 188.38ZM61.2689 185.38C61.2689 184.633 61.0356 184.06 60.5689 183.66C60.1022 183.26 59.4622 183.06 58.6489 183.06C57.8489 183.06 57.2156 183.26 56.7489 183.66C56.2822 184.06 56.0489 184.64 56.0489 185.4C56.0489 186.067 56.2889 186.613 56.7689 187.04C57.2622 187.453 57.8889 187.66 58.6489 187.66C59.4089 187.66 60.0356 187.447 60.5289 187.02C61.0222 186.593 61.2689 186.047 61.2689 185.38ZM58.6489 189.38C57.7689 189.38 57.0489 189.6 56.4889 190.04C55.9422 190.467 55.6689 191.087 55.6689 191.9C55.6689 192.66 55.9356 193.28 56.4689 193.76C57.0022 194.227 57.7289 194.46 58.6489 194.46C59.5556 194.46 60.2689 194.22 60.7889 193.74C61.3222 193.26 61.5889 192.647 61.5889 191.9C61.5889 191.1 61.3156 190.48 60.7689 190.04C60.2356 189.6 59.5289 189.38 58.6489 189.38ZM68.9428 192.04C69.0761 192.707 69.3628 193.213 69.8028 193.56C70.2428 193.907 70.8361 194.08 71.5828 194.08C72.5295 194.08 73.2228 193.707 73.6628 192.96C74.1028 192.213 74.3228 190.94 74.3228 189.14C74.0028 189.593 73.5495 189.947 72.9628 190.2C72.3895 190.44 71.7628 190.56 71.0828 190.56C70.2161 190.56 69.4295 190.387 68.7228 190.04C68.0161 189.68 67.4561 189.153 67.0428 188.46C66.6428 187.753 66.4428 186.9 66.4428 185.9C66.4428 184.433 66.8695 183.267 67.7228 182.4C68.5895 181.52 69.7761 181.08 71.2828 181.08C73.0961 181.08 74.3828 181.687 75.1428 182.9C75.9161 184.1 76.3028 185.947 76.3028 188.44C76.3028 190.16 76.1561 191.567 75.8628 192.66C75.5828 193.753 75.0895 194.58 74.3828 195.14C73.6761 195.7 72.6961 195.98 71.4428 195.98C70.0161 195.98 68.9161 195.607 68.1428 194.86C67.3695 194.113 66.9361 193.173 66.8428 192.04H68.9428ZM71.4828 188.64C72.2828 188.64 72.9095 188.393 73.3628 187.9C73.8295 187.393 74.0628 186.727 74.0628 185.9C74.0628 184.98 73.8161 184.267 73.3228 183.76C72.8428 183.24 72.1828 182.98 71.3428 182.98C70.5028 182.98 69.8361 183.247 69.3428 183.78C68.8628 184.3 68.6228 184.987 68.6228 185.84C68.6228 186.653 68.8561 187.327 69.3228 187.86C69.8028 188.38 70.5228 188.64 71.4828 188.64ZM78.6781 188.52C78.6781 186.213 79.0648 184.413 79.8381 183.12C80.6248 181.813 81.9715 181.16 83.8781 181.16C85.7848 181.16 87.1248 181.813 87.8981 183.12C88.6848 184.413 89.0781 186.213 89.0781 188.52C89.0781 190.853 88.6848 192.68 87.8981 194C87.1248 195.307 85.7848 195.96 83.8781 195.96C81.9715 195.96 80.6248 195.307 79.8381 194C79.0648 192.68 78.6781 190.853 78.6781 188.52ZM86.8381 188.52C86.8381 187.44 86.7648 186.527 86.6181 185.78C86.4848 185.033 86.2048 184.427 85.7781 183.96C85.3515 183.48 84.7181 183.24 83.8781 183.24C83.0381 183.24 82.4048 183.48 81.9781 183.96C81.5515 184.427 81.2648 185.033 81.1181 185.78C80.9848 186.527 80.9181 187.44 80.9181 188.52C80.9181 189.64 80.9848 190.58 81.1181 191.34C81.2515 192.1 81.5315 192.713 81.9581 193.18C82.3981 193.647 83.0381 193.88 83.8781 193.88C84.7181 193.88 85.3515 193.647 85.7781 193.18C86.2181 192.713 86.5048 192.1 86.6381 191.34C86.7715 190.58 86.8381 189.64 86.8381 188.52Z" fill="black"/>
<path d="M217.9 118.5V116.42H222.06V131H219.76V118.5H217.9ZM227.532 123.38C226.146 122.687 225.452 121.593 225.452 120.1C225.452 119.38 225.632 118.72 225.992 118.12C226.352 117.52 226.892 117.047 227.612 116.7C228.332 116.34 229.212 116.16 230.252 116.16C231.279 116.16 232.152 116.34 232.872 116.7C233.606 117.047 234.152 117.52 234.512 118.12C234.872 118.72 235.052 119.38 235.052 120.1C235.052 120.847 234.859 121.507 234.472 122.08C234.099 122.64 233.599 123.073 232.972 123.38C233.732 123.66 234.332 124.12 234.772 124.76C235.212 125.387 235.432 126.127 235.432 126.98C235.432 127.847 235.212 128.613 234.772 129.28C234.332 129.947 233.719 130.46 232.932 130.82C232.146 131.18 231.252 131.36 230.252 131.36C229.252 131.36 228.359 131.18 227.572 130.82C226.799 130.46 226.192 129.947 225.752 129.28C225.312 128.613 225.092 127.847 225.092 126.98C225.092 126.113 225.312 125.367 225.752 124.74C226.192 124.113 226.786 123.66 227.532 123.38ZM232.872 120.38C232.872 119.633 232.639 119.06 232.172 118.66C231.706 118.26 231.066 118.06 230.252 118.06C229.452 118.06 228.819 118.26 228.352 118.66C227.886 119.06 227.652 119.64 227.652 120.4C227.652 121.067 227.892 121.613 228.372 122.04C228.866 122.453 229.492 122.66 230.252 122.66C231.012 122.66 231.639 122.447 232.132 122.02C232.626 121.593 232.872 121.047 232.872 120.38ZM230.252 124.38C229.372 124.38 228.652 124.6 228.092 125.04C227.546 125.467 227.272 126.087 227.272 126.9C227.272 127.66 227.539 128.28 228.072 128.76C228.606 129.227 229.332 129.46 230.252 129.46C231.159 129.46 231.872 129.22 232.392 128.74C232.926 128.26 233.192 127.647 233.192 126.9C233.192 126.1 232.919 125.48 232.372 125.04C231.839 124.6 231.132 124.38 230.252 124.38ZM247.106 118.38H240.406V122.36C240.686 121.987 241.099 121.673 241.646 121.42C242.206 121.167 242.799 121.04 243.426 121.04C244.546 121.04 245.453 121.28 246.146 121.76C246.853 122.24 247.353 122.847 247.646 123.58C247.953 124.313 248.106 125.087 248.106 125.9C248.106 126.887 247.913 127.767 247.526 128.54C247.153 129.3 246.586 129.9 245.826 130.34C245.079 130.78 244.159 131 243.066 131C241.613 131 240.446 130.64 239.566 129.92C238.686 129.2 238.159 128.247 237.986 127.06H240.206C240.353 127.687 240.679 128.187 241.186 128.56C241.693 128.92 242.326 129.1 243.086 129.1C244.033 129.1 244.739 128.813 245.206 128.24C245.686 127.667 245.926 126.907 245.926 125.96C245.926 125 245.686 124.267 245.206 123.76C244.726 123.24 244.019 122.98 243.086 122.98C242.433 122.98 241.879 123.147 241.426 123.48C240.986 123.8 240.666 124.24 240.466 124.8H238.306V116.38H247.106V118.38ZM251.58 131.14C251.166 131.14 250.82 131 250.54 130.72C250.26 130.44 250.12 130.093 250.12 129.68C250.12 129.267 250.26 128.92 250.54 128.64C250.82 128.36 251.166 128.22 251.58 128.22C251.98 128.22 252.32 128.36 252.6 128.64C252.88 128.92 253.02 129.267 253.02 129.68C253.02 130.093 252.88 130.44 252.6 130.72C252.32 131 251.98 131.14 251.58 131.14ZM257.524 123.38C256.137 122.687 255.444 121.593 255.444 120.1C255.444 119.38 255.624 118.72 255.984 118.12C256.344 117.52 256.884 117.047 257.604 116.7C258.324 116.34 259.204 116.16 260.244 116.16C261.27 116.16 262.144 116.34 262.864 116.7C263.597 117.047 264.144 117.52 264.504 118.12C264.864 118.72 265.044 119.38 265.044 120.1C265.044 120.847 264.85 121.507 264.464 122.08C264.09 122.64 263.59 123.073 262.964 123.38C263.724 123.66 264.324 124.12 264.764 124.76C265.204 125.387 265.424 126.127 265.424 126.98C265.424 127.847 265.204 128.613 264.764 129.28C264.324 129.947 263.71 130.46 262.924 130.82C262.137 131.18 261.244 131.36 260.244 131.36C259.244 131.36 258.35 131.18 257.564 130.82C256.79 130.46 256.184 129.947 255.744 129.28C255.304 128.613 255.084 127.847 255.084 126.98C255.084 126.113 255.304 125.367 255.744 124.74C256.184 124.113 256.777 123.66 257.524 123.38ZM262.864 120.38C262.864 119.633 262.63 119.06 262.164 118.66C261.697 118.26 261.057 118.06 260.244 118.06C259.444 118.06 258.81 118.26 258.344 118.66C257.877 119.06 257.644 119.64 257.644 120.4C257.644 121.067 257.884 121.613 258.364 122.04C258.857 122.453 259.484 122.66 260.244 122.66C261.004 122.66 261.63 122.447 262.124 122.02C262.617 121.593 262.864 121.047 262.864 120.38ZM260.244 124.38C259.364 124.38 258.644 124.6 258.084 125.04C257.537 125.467 257.264 126.087 257.264 126.9C257.264 127.66 257.53 128.28 258.064 128.76C258.597 129.227 259.324 129.46 260.244 129.46C261.15 129.46 261.864 129.22 262.384 128.74C262.917 128.26 263.184 127.647 263.184 126.9C263.184 126.1 262.91 125.48 262.364 125.04C261.83 124.6 261.124 124.38 260.244 124.38ZM268.958 127.9C270.238 126.793 271.244 125.887 271.978 125.18C272.724 124.46 273.344 123.713 273.838 122.94C274.331 122.167 274.578 121.393 274.578 120.62C274.578 119.82 274.384 119.193 273.998 118.74C273.624 118.287 273.031 118.06 272.218 118.06C271.431 118.06 270.818 118.313 270.378 118.82C269.951 119.313 269.724 119.98 269.698 120.82H267.498C267.538 119.3 267.991 118.14 268.858 117.34C269.738 116.527 270.851 116.12 272.198 116.12C273.651 116.12 274.784 116.52 275.598 117.32C276.424 118.12 276.838 119.187 276.838 120.52C276.838 121.48 276.591 122.407 276.098 123.3C275.618 124.18 275.038 124.973 274.358 125.68C273.691 126.373 272.838 127.18 271.798 128.1L270.898 128.9H277.238V130.8H267.518V129.14L268.958 127.9Z" fill="#FF3B30"/>
<path d="M217.9 183.5V181.42H222.06V196H219.76V183.5H217.9ZM226.292 196.14C225.879 196.14 225.532 196 225.252 195.72C224.972 195.44 224.832 195.093 224.832 194.68C224.832 194.267 224.972 193.92 225.252 193.64C225.532 193.36 225.879 193.22 226.292 193.22C226.692 193.22 227.032 193.36 227.312 193.64C227.592 193.92 227.732 194.267 227.732 194.68C227.732 195.093 227.592 195.44 227.312 195.72C227.032 196 226.692 196.14 226.292 196.14ZM229.776 188.52C229.776 186.213 230.163 184.413 230.936 183.12C231.723 181.813 233.07 181.16 234.976 181.16C236.883 181.16 238.223 181.813 238.996 183.12C239.783 184.413 240.176 186.213 240.176 188.52C240.176 190.853 239.783 192.68 238.996 194C238.223 195.307 236.883 195.96 234.976 195.96C233.07 195.96 231.723 195.307 230.936 194C230.163 192.68 229.776 190.853 229.776 188.52ZM237.936 188.52C237.936 187.44 237.863 186.527 237.716 185.78C237.583 185.033 237.303 184.427 236.876 183.96C236.45 183.48 235.816 183.24 234.976 183.24C234.136 183.24 233.503 183.48 233.076 183.96C232.65 184.427 232.363 185.033 232.216 185.78C232.083 186.527 232.016 187.44 232.016 188.52C232.016 189.64 232.083 190.58 232.216 191.34C232.35 192.1 232.63 192.713 233.056 193.18C233.496 193.647 234.136 193.88 234.976 193.88C235.816 193.88 236.45 193.647 236.876 193.18C237.316 192.713 237.603 192.1 237.736 191.34C237.87 190.58 237.936 189.64 237.936 188.52ZM251.709 183.18L246.149 196H243.849L249.469 183.42H242.069V181.48H251.709V183.18ZM256.38 192.04C256.514 192.707 256.8 193.213 257.24 193.56C257.68 193.907 258.274 194.08 259.02 194.08C259.967 194.08 260.66 193.707 261.1 192.96C261.54 192.213 261.76 190.94 261.76 189.14C261.44 189.593 260.987 189.947 260.4 190.2C259.827 190.44 259.2 190.56 258.52 190.56C257.654 190.56 256.867 190.387 256.16 190.04C255.454 189.68 254.894 189.153 254.48 188.46C254.08 187.753 253.88 186.9 253.88 185.9C253.88 184.433 254.307 183.267 255.16 182.4C256.027 181.52 257.214 181.08 258.72 181.08C260.534 181.08 261.82 181.687 262.58 182.9C263.354 184.1 263.74 185.947 263.74 188.44C263.74 190.16 263.594 191.567 263.3 192.66C263.02 193.753 262.527 194.58 261.82 195.14C261.114 195.7 260.134 195.98 258.88 195.98C257.454 195.98 256.354 195.607 255.58 194.86C254.807 194.113 254.374 193.173 254.28 192.04H256.38ZM258.92 188.64C259.72 188.64 260.347 188.393 260.8 187.9C261.267 187.393 261.5 186.727 261.5 185.9C261.5 184.98 261.254 184.267 260.76 183.76C260.28 183.24 259.62 182.98 258.78 182.98C257.94 182.98 257.274 183.247 256.78 183.78C256.3 184.3 256.06 184.987 256.06 185.84C256.06 186.653 256.294 187.327 256.76 187.86C257.24 188.38 257.96 188.64 258.92 188.64ZM275.516 183.38H268.816V187.36C269.096 186.987 269.509 186.673 270.056 186.42C270.616 186.167 271.209 186.04 271.836 186.04C272.956 186.04 273.862 186.28 274.556 186.76C275.262 187.24 275.762 187.847 276.056 188.58C276.362 189.313 276.516 190.087 276.516 190.9C276.516 191.887 276.322 192.767 275.936 193.54C275.562 194.3 274.996 194.9 274.236 195.34C273.489 195.78 272.569 196 271.476 196C270.022 196 268.856 195.64 267.976 194.92C267.096 194.2 266.569 193.247 266.396 192.06H268.616C268.762 192.687 269.089 193.187 269.596 193.56C270.102 193.92 270.736 194.1 271.496 194.1C272.442 194.1 273.149 193.813 273.616 193.24C274.096 192.667 274.336 191.907 274.336 190.96C274.336 190 274.096 189.267 273.616 188.76C273.136 188.24 272.429 187.98 271.496 187.98C270.842 187.98 270.289 188.147 269.836 188.48C269.396 188.8 269.076 189.24 268.876 189.8H266.716V181.38H275.516V183.38Z" fill="black"/>
<circle cx="33.5" cy="246.5" r="5.5" fill="#34C759"/>
<rect x="306" y="226" width="82" height="30" rx="2" fill="#DCFCE7"/>
<path d="M328.104 241.46H325.836V243.788H324.252V241.46H321.984V239.996H324.252V237.668H325.836V239.996H328.104V241.46ZM334.186 238.436C334.106 238.1 333.966 237.848 333.766 237.68C333.574 237.512 333.294 237.428 332.926 237.428C332.374 237.428 331.966 237.652 331.702 238.1C331.446 238.54 331.314 239.26 331.306 240.26C331.498 239.94 331.778 239.692 332.146 239.516C332.514 239.332 332.914 239.24 333.346 239.24C333.866 239.24 334.326 239.352 334.726 239.576C335.126 239.8 335.438 240.128 335.662 240.56C335.886 240.984 335.998 241.496 335.998 242.096C335.998 242.664 335.882 243.172 335.65 243.62C335.426 244.06 335.094 244.404 334.654 244.652C334.214 244.9 333.69 245.024 333.082 245.024C332.25 245.024 331.594 244.84 331.114 244.472C330.642 244.104 330.31 243.592 330.118 242.936C329.934 242.272 329.842 241.456 329.842 240.488C329.842 239.024 330.094 237.92 330.598 237.176C331.102 236.424 331.898 236.048 332.986 236.048C333.826 236.048 334.478 236.276 334.942 236.732C335.406 237.188 335.674 237.756 335.746 238.436H334.186ZM332.962 240.62C332.538 240.62 332.182 240.744 331.894 240.992C331.606 241.24 331.462 241.6 331.462 242.072C331.462 242.544 331.594 242.916 331.858 243.188C332.13 243.46 332.51 243.596 332.998 243.596C333.43 243.596 333.77 243.464 334.018 243.2C334.274 242.936 334.402 242.58 334.402 242.132C334.402 241.668 334.278 241.3 334.03 241.028C333.79 240.756 333.434 240.62 332.962 240.62ZM337.278 238.556C337.318 237.756 337.598 237.14 338.118 236.708C338.646 236.268 339.338 236.048 340.194 236.048C340.778 236.048 341.278 236.152 341.694 236.36C342.11 236.56 342.422 236.836 342.63 237.188C342.846 237.532 342.954 237.924 342.954 238.364C342.954 238.868 342.822 239.296 342.558 239.648C342.302 239.992 341.994 240.224 341.634 240.344V240.392C342.098 240.536 342.458 240.792 342.714 241.16C342.978 241.528 343.11 242 343.11 242.576C343.11 243.056 342.998 243.484 342.774 243.86C342.558 244.236 342.234 244.532 341.802 244.748C341.378 244.956 340.866 245.06 340.266 245.06C339.362 245.06 338.626 244.832 338.058 244.376C337.49 243.92 337.19 243.248 337.158 242.36H338.79C338.806 242.752 338.938 243.068 339.186 243.308C339.442 243.54 339.79 243.656 340.23 243.656C340.638 243.656 340.95 243.544 341.166 243.32C341.39 243.088 341.502 242.792 341.502 242.432C341.502 241.952 341.35 241.608 341.046 241.4C340.742 241.192 340.27 241.088 339.63 241.088H339.282V239.708H339.63C340.766 239.708 341.334 239.328 341.334 238.568C341.334 238.224 341.23 237.956 341.022 237.764C340.822 237.572 340.53 237.476 340.146 237.476C339.77 237.476 339.478 237.58 339.27 237.788C339.07 237.988 338.954 238.244 338.922 238.556H337.278ZM349.025 239.312C349.241 239.008 349.537 238.756 349.913 238.556C350.297 238.348 350.733 238.244 351.221 238.244C351.789 238.244 352.301 238.384 352.757 238.664C353.221 238.944 353.585 239.344 353.849 239.864C354.121 240.376 354.257 240.972 354.257 241.652C354.257 242.332 354.121 242.936 353.849 243.464C353.585 243.984 353.221 244.388 352.757 244.676C352.301 244.964 351.789 245.108 351.221 245.108C350.733 245.108 350.301 245.008 349.925 244.808C349.557 244.608 349.257 244.356 349.025 244.052V248.168H347.345V238.352H349.025V239.312ZM352.541 241.652C352.541 241.252 352.457 240.908 352.289 240.62C352.129 240.324 351.913 240.1 351.641 239.948C351.377 239.796 351.089 239.72 350.777 239.72C350.473 239.72 350.185 239.8 349.913 239.96C349.649 240.112 349.433 240.336 349.265 240.632C349.105 240.928 349.025 241.276 349.025 241.676C349.025 242.076 349.105 242.424 349.265 242.72C349.433 243.016 349.649 243.244 349.913 243.404C350.185 243.556 350.473 243.632 350.777 243.632C351.089 243.632 351.377 243.552 351.641 243.392C351.913 243.232 352.129 243.004 352.289 242.708C352.457 242.412 352.541 242.06 352.541 241.652ZM356.257 237.56C355.961 237.56 355.713 237.468 355.513 237.284C355.321 237.092 355.225 236.856 355.225 236.576C355.225 236.296 355.321 236.064 355.513 235.88C355.713 235.688 355.961 235.592 356.257 235.592C356.553 235.592 356.797 235.688 356.989 235.88C357.189 236.064 357.289 236.296 357.289 236.576C357.289 236.856 357.189 237.092 356.989 237.284C356.797 237.468 356.553 237.56 356.257 237.56ZM357.085 238.352V245H355.405V238.352H357.085ZM360.353 239.312C360.569 239.008 360.865 238.756 361.241 238.556C361.625 238.348 362.061 238.244 362.549 238.244C363.117 238.244 363.629 238.384 364.085 238.664C364.549 238.944 364.913 239.344 365.177 239.864C365.449 240.376 365.585 240.972 365.585 241.652C365.585 242.332 365.449 242.936 365.177 243.464C364.913 243.984 364.549 244.388 364.085 244.676C363.629 244.964 363.117 245.108 362.549 245.108C362.061 245.108 361.629 245.008 361.253 244.808C360.885 244.608 360.585 244.356 360.353 244.052V248.168H358.673V238.352H360.353V239.312ZM363.869 241.652C363.869 241.252 363.785 240.908 363.617 240.62C363.457 240.324 363.241 240.1 362.969 239.948C362.705 239.796 362.417 239.72 362.105 239.72C361.801 239.72 361.513 239.8 361.241 239.96C360.977 240.112 360.761 240.336 360.593 240.632C360.433 240.928 360.353 241.276 360.353 241.676C360.353 242.076 360.433 242.424 360.593 242.72C360.761 243.016 360.977 243.244 361.241 243.404C361.513 243.556 361.801 243.632 362.105 243.632C362.417 243.632 362.705 243.552 362.969 243.392C363.241 243.232 363.457 243.004 363.617 242.708C363.785 242.412 363.869 242.06 363.869 241.652ZM369.278 245.108C368.734 245.108 368.246 245.012 367.814 244.82C367.382 244.62 367.038 244.352 366.782 244.016C366.534 243.68 366.398 243.308 366.374 242.9H368.066C368.098 243.156 368.222 243.368 368.438 243.536C368.662 243.704 368.938 243.788 369.266 243.788C369.586 243.788 369.834 243.724 370.01 243.596C370.194 243.468 370.286 243.304 370.286 243.104C370.286 242.888 370.174 242.728 369.95 242.624C369.734 242.512 369.386 242.392 368.906 242.264C368.41 242.144 368.002 242.02 367.682 241.892C367.37 241.764 367.098 241.568 366.866 241.304C366.642 241.04 366.53 240.684 366.53 240.236C366.53 239.868 366.634 239.532 366.842 239.228C367.058 238.924 367.362 238.684 367.754 238.508C368.154 238.332 368.622 238.244 369.158 238.244C369.95 238.244 370.582 238.444 371.054 238.844C371.526 239.236 371.786 239.768 371.834 240.44H370.226C370.202 240.176 370.09 239.968 369.89 239.816C369.698 239.656 369.438 239.576 369.11 239.576C368.806 239.576 368.57 239.632 368.402 239.744C368.242 239.856 368.162 240.012 368.162 240.212C368.162 240.436 368.274 240.608 368.498 240.728C368.722 240.84 369.07 240.956 369.542 241.076C370.022 241.196 370.418 241.32 370.73 241.448C371.042 241.576 371.31 241.776 371.534 242.048C371.766 242.312 371.886 242.664 371.894 243.104C371.894 243.488 371.786 243.832 371.57 244.136C371.362 244.44 371.058 244.68 370.658 244.856C370.266 245.024 369.806 245.108 369.278 245.108Z" fill="#34C759"/>
<path d="M325 29V34L322.5 32.5M334 34C334 38.9706 329.971 43 325 43C320.029 43 316 38.9706 316 34C316 29.0294 320.029 25 325 25C329.971 25 334 29.0294 334 34Z" stroke="white" stroke-width="2" stroke-linecap="round" stroke-linejoin="round"/>
</g>
<defs>
<clipPath id="clip0_228_884">
<rect width="404" height="275" rx="8" fill="white"/>
</clipPath>
</defs>
</svg>
